<svg width="54" height="54" viewBox="0 0 54 54" fill="none" xmlns="http://www.w3.org/2000/svg">
<circle cx="27" cy="27" r="27" fill="#002149"/>
<path fill-rule="evenodd" clip-rule="evenodd" d="M27 17.375C27.1824 17.375 27.3572 17.4474 27.4861 17.5764C27.6151 17.7053 27.6875 17.8802 27.6875 18.0625V34.2779L32.0133 29.9508C32.1424 29.8217 32.3174 29.7491 32.5 29.7491C32.6826 29.7491 32.8577 29.8217 32.9868 29.9508C33.1159 30.0798 33.1884 30.2549 33.1884 30.4375C33.1884 30.6201 33.1159 30.7952 32.9868 30.9242L27.4868 36.4242C27.4229 36.4883 27.347 36.5391 27.2635 36.5737C27.18 36.6084 27.0904 36.6262 27 36.6262C26.9096 36.6262 26.82 36.6084 26.7365 36.5737C26.653 36.5391 26.5771 36.4883 26.5133 36.4242L21.0133 30.9242C20.8842 30.7952 20.8116 30.6201 20.8116 30.4375C20.8116 30.2549 20.8842 30.0798 21.0133 29.9508C21.1424 29.8217 21.3174 29.7491 21.5 29.7491C21.6826 29.7491 21.8577 29.8217 21.9868 29.9508L26.3125 34.2779V18.0625C26.3125 17.8802 26.3849 17.7053 26.5139 17.5764C26.6428 17.4474 26.8177 17.375 27 17.375Z" fill="white"/>
</svg>
