<?xml version="1.0" encoding="UTF-8"?> <svg xmlns="http://www.w3.org/2000/svg" width="64" height="64" viewBox="0 0 64 64" fill="none"><g clip-path="url(#clip0_27_2322)"><path d="M48.37 48.69H12C11.8363 48.6913 11.674 48.6602 11.5224 48.5985C11.3708 48.5368 11.2329 48.4457 11.1167 48.3304C11.0005 48.2151 10.9083 48.0779 10.8453 47.9268C10.7824 47.7757 10.75 47.6137 10.75 47.45V15.37C10.7354 15.2811 10.6897 15.2002 10.621 15.1418C10.5523 15.0835 10.4651 15.0515 10.375 15.0515C10.2849 15.0515 10.1977 15.0835 10.129 15.1418C10.0603 15.2002 10.0146 15.2811 10 15.37V47.45C10 47.9804 10.2107 48.4892 10.5858 48.8642C10.9609 49.2393 11.4696 49.45 12 49.45H48.37C48.4681 49.45 48.5622 49.411 48.6316 49.3416C48.701 49.2723 48.74 49.1781 48.74 49.08C48.74 48.9809 48.7014 48.8858 48.6322 48.8148C48.5631 48.7438 48.469 48.7026 48.37 48.7" fill="black"></path><path d="M48.9999 20.69C48.9647 20.6543 48.9226 20.6262 48.8762 20.6073C48.8298 20.5884 48.78 20.5791 48.7299 20.58H39.6499C39.5955 20.5711 39.5399 20.5741 39.4868 20.5889C39.4337 20.6036 39.3844 20.6297 39.3424 20.6654C39.3004 20.7011 39.2667 20.7455 39.2436 20.7955C39.2204 20.8455 39.2085 20.8999 39.2085 20.955C39.2085 21.0101 39.2204 21.0646 39.2436 21.1146C39.2667 21.1646 39.3004 21.209 39.3424 21.2446C39.3844 21.2803 39.4337 21.3064 39.4868 21.3212C39.5399 21.3359 39.5955 21.3389 39.6499 21.33H47.8299L29.5699 39.58L24.5699 34.58L15.6499 43.48C15.5403 43.4287 15.4209 43.4015 15.2999 43.4H14.4299C14.3201 43.3987 14.2111 43.4192 14.1092 43.4603C14.0073 43.5014 13.9147 43.5623 13.8365 43.6396C13.7584 43.7168 13.6964 43.8087 13.654 43.9101C13.6117 44.0114 13.5899 44.1202 13.5899 44.23V45.11C13.5886 45.2207 13.6094 45.3305 13.6511 45.433C13.6928 45.5356 13.7547 45.6287 13.8329 45.707C13.9112 45.7852 14.0044 45.8471 14.1069 45.8888C14.2094 45.9305 14.3192 45.9514 14.4299 45.95H15.2999C15.4097 45.95 15.5185 45.9282 15.6199 45.8859C15.7212 45.8436 15.8132 45.7815 15.8904 45.7034C15.9676 45.6253 16.0285 45.5326 16.0696 45.4307C16.1107 45.3289 16.1312 45.2199 16.1299 45.11V44.24C16.1346 44.1901 16.1346 44.1399 16.1299 44.09L24.6099 35.61L29.6099 40.66L48.3999 21.87V30.05C48.391 30.1044 48.394 30.16 48.4088 30.2131C48.4235 30.2662 48.4496 30.3155 48.4853 30.3575C48.521 30.3995 48.5653 30.4332 48.6154 30.4563C48.6654 30.4795 48.7198 30.4915 48.7749 30.4915C48.83 30.4915 48.8844 30.4795 48.9344 30.4563C48.9845 30.4332 49.0288 30.3995 49.0645 30.3575C49.1002 30.3155 49.1263 30.2662 49.141 30.2131C49.1558 30.16 49.1588 30.1044 49.1499 30.05V20.96C49.15 20.9115 49.1403 20.8635 49.1214 20.8188C49.1025 20.7741 49.0748 20.7337 49.0399 20.7" fill="black"></path><path d="M54.4799 48.69H51.0099C50.9091 48.69 50.8124 48.73 50.7412 48.8013C50.6699 48.8726 50.6299 48.9692 50.6299 49.07C50.6299 49.1194 50.6398 49.1684 50.659 49.214C50.6782 49.2595 50.7064 49.3007 50.7418 49.3352C50.7772 49.3697 50.8192 49.3968 50.8652 49.4148C50.9113 49.4328 50.9605 49.4413 51.0099 49.44H54.4799C54.578 49.44 54.6721 49.401 54.7415 49.3316C54.8109 49.2622 54.8499 49.1681 54.8499 49.07C54.8499 48.9709 54.8113 48.8758 54.7421 48.8048C54.673 48.7338 54.5789 48.6926 54.4799 48.69Z" fill="black"></path></g><defs><clipPath id="clip0_27_2322"><rect width="44.85" height="34.45" fill="white" transform="translate(10 15)"></rect></clipPath></defs></svg> 