<svg width="100" height="100" viewBox="0 0 100 100" fill="none" xmlns="http://www.w3.org/2000/svg">
<g clip-path="url(#clip0_309_36)">
<path d="M82.8423 74.5144H82.3946V66.799C82.3946 63.8816 80.2531 61.362 77.168 60.1685C78.2847 59.142 78.9681 57.7309 79.0798 56.2211C79.1915 54.7112 78.7231 53.2156 77.7694 52.037C76.8158 50.8584 75.4482 50.0851 73.9437 49.8736C72.4392 49.6621 70.9103 50.0283 69.6667 50.898C69.5725 50.9698 69.5098 51.0752 69.4918 51.192C69.4738 51.3089 69.5017 51.4281 69.5699 51.5249C69.6289 51.6045 69.7148 51.6601 69.8119 51.6816C69.8763 51.7044 69.9455 51.7108 70.0131 51.7003C70.0807 51.6898 70.1446 51.6626 70.199 51.6213C71.2916 50.8348 72.653 50.5129 73.9837 50.7266C75.3145 50.9402 76.5056 51.6719 77.295 52.7605C78.0843 53.8492 78.4073 55.2057 78.1929 56.5317C77.9785 57.8577 77.2442 59.0444 76.1516 59.831C75.7785 60.0995 75.3718 60.3184 74.9417 60.482C74.3738 60.6992 73.7715 60.8135 73.1632 60.8195C72.5506 60.8182 71.9434 60.7037 71.3726 60.482C70.9438 60.3158 70.5374 60.0971 70.1627 59.831C69.376 59.2597 68.7677 58.4781 68.4084 57.5766C68.3835 57.5133 68.3444 57.4565 68.294 57.4105C68.2437 57.3645 68.1835 57.3306 68.118 57.3114C68.0236 57.281 67.922 57.281 67.8276 57.3114C67.7138 57.3546 67.6217 57.4411 67.5718 57.5519C67.5219 57.6626 67.5182 57.7886 67.5615 57.9021C67.9031 58.7685 68.4415 59.5442 69.1343 60.1685C66.0612 61.3741 63.9197 63.8816 63.9197 66.799V74.5144H58.9229V66.799C58.9229 63.8816 56.7814 61.362 53.6962 60.1685C54.6153 59.3575 55.265 58.287 55.5589 57.0993C55.8529 55.9116 55.7772 54.6629 55.342 53.5191C54.9067 52.3753 54.1325 51.3905 53.1222 50.6955C52.1118 50.0006 50.9132 49.6284 49.6855 49.6284C48.4578 49.6284 47.2591 50.0006 46.2488 50.6955C45.2385 51.3905 44.4643 52.3753 44.029 53.5191C43.5938 54.6629 43.5181 55.9116 43.812 57.0993C44.106 58.287 44.7556 59.3575 45.6747 60.1685C42.5895 61.3741 40.448 63.8816 40.448 66.799V74.5144H35.4512V66.799C35.4512 63.8816 33.3097 61.362 30.2245 60.1685C31.3413 59.142 32.0248 57.7309 32.1364 56.2211C32.2481 54.7112 31.7797 53.2156 30.8261 52.037C29.8724 50.8584 28.5048 50.0851 27.0004 49.8736C25.4959 49.6621 23.967 50.0283 22.7233 50.898C22.6754 50.9326 22.6348 50.9763 22.604 51.0267C22.5731 51.077 22.5526 51.133 22.5436 51.1913C22.5346 51.2496 22.5372 51.3091 22.5515 51.3663C22.5657 51.4236 22.5912 51.4775 22.6265 51.5249C22.6832 51.6014 22.7642 51.6566 22.8564 51.6816C22.9223 51.7078 22.994 51.716 23.0642 51.7054C23.1344 51.6948 23.2005 51.6658 23.2557 51.6213C23.7967 51.2318 24.4094 50.9524 25.0587 50.7989C25.7081 50.6453 26.3815 50.6208 27.0404 50.7266C27.6993 50.8323 28.3309 51.0664 28.899 51.4154C29.4671 51.7644 29.9608 52.2215 30.3516 52.7605C30.7425 53.2996 31.0229 53.9101 31.177 54.5571C31.331 55.2042 31.3557 55.8751 31.2496 56.5317C31.1434 57.1882 30.9085 57.8175 30.5582 58.3836C30.208 58.9497 29.7493 59.4415 29.2083 59.831C28.8351 60.0995 28.4284 60.3184 27.9984 60.482C27.4305 60.6992 26.8281 60.8135 26.2198 60.8195C25.6071 60.8182 25 60.7037 24.4292 60.482C24.0004 60.3158 23.594 60.0971 23.2193 59.831C22.4326 59.2597 21.8244 58.4781 21.465 57.5766C21.4401 57.5133 21.401 57.4565 21.3507 57.4105C21.3004 57.3645 21.2401 57.3306 21.1746 57.3114C21.0803 57.281 20.9787 57.281 20.8843 57.3114C20.7704 57.3546 20.6784 57.4411 20.6285 57.5519C20.5786 57.6626 20.5748 57.7886 20.6181 57.9021C20.9597 58.7685 21.4981 59.5442 22.191 60.1685C19.1179 61.3741 16.9764 63.8816 16.9764 66.799V74.5264C16.1729 74.5667 15.4156 74.9133 14.8615 75.4946C14.3075 76.0758 13.999 76.8471 14.0001 77.6488V80.5541C13.9984 80.6131 14.0088 80.6719 14.0307 80.7268C14.0526 80.7816 14.0855 80.8315 14.1274 80.8732C14.1693 80.915 14.2194 80.9477 14.2745 80.9696C14.3295 80.9914 14.3885 81.0018 14.4477 81.0001C14.5075 81.0018 14.567 80.9914 14.6227 80.9697C14.6784 80.948 14.7292 80.9154 14.7721 80.8738C14.815 80.8323 14.849 80.7826 14.8722 80.7276C14.8955 80.6727 14.9075 80.6137 14.9075 80.5541V77.6488C14.9075 77.0573 15.1433 76.49 15.5631 76.0718C15.9828 75.6535 16.5521 75.4185 17.1457 75.4185H82.8423C83.1362 75.4185 83.4273 75.4762 83.6988 75.5883C83.9704 75.7004 84.2171 75.8647 84.4249 76.0718C84.6328 76.2789 84.7977 76.5247 84.9102 76.7953C85.0227 77.0659 85.0805 77.3559 85.0805 77.6488V80.5541C85.0982 80.6613 85.1535 80.7588 85.2366 80.8292C85.3197 80.8995 85.4252 80.9382 85.5343 80.9382C85.6433 80.9382 85.7488 80.8995 85.8319 80.8292C85.915 80.7588 85.9703 80.6613 85.988 80.5541V77.6488C85.988 76.8175 85.6565 76.0202 85.0666 75.4324C84.4767 74.8446 83.6766 74.5144 82.8423 74.5144V74.5144ZM33.2372 74.5144H17.8838V66.799C17.8838 64.0986 20.0252 61.7839 23.062 60.7713C24.0079 61.3649 25.1019 61.6824 26.2198 61.6875C27.3344 61.686 28.4256 61.3682 29.3656 60.7713C32.4024 61.7478 34.5438 64.0624 34.5438 66.799V74.5144H33.2372ZM44.5979 55.7563C44.5918 54.8861 44.8104 54.0291 45.2326 53.2674C45.6548 52.5056 46.2665 51.8649 47.0089 51.4066C47.7513 50.9484 48.5994 50.688 49.4718 50.6505C50.3443 50.613 51.2119 50.7996 51.9911 51.1925C52.7703 51.5853 53.4351 52.1712 53.9215 52.8939C54.408 53.6165 54.6998 54.4516 54.769 55.3191C54.8382 56.1865 54.6824 57.0571 54.3165 57.8472C53.9507 58.6373 53.3871 59.3204 52.6799 59.831C52.3068 60.0995 51.9 60.3184 51.47 60.482C50.3238 60.9351 49.0472 60.9351 47.9009 60.482C47.4721 60.3158 47.0657 60.0971 46.6911 59.831C46.0455 59.3633 45.5196 58.7507 45.156 58.0428C44.7923 57.3348 44.6011 56.5515 44.5979 55.7563V55.7563ZM56.6967 74.5144H41.3554V66.799C41.3554 64.0986 43.497 61.7839 46.5338 60.7713C47.4751 61.3703 48.5686 61.6885 49.6855 61.6885C50.8023 61.6885 51.8959 61.3703 52.8372 60.7713C55.874 61.7478 58.0155 64.0624 58.0155 66.799V74.5144H56.6967ZM80.1684 74.5144H64.8272V66.799C64.8272 64.0986 66.9807 61.7839 70.0054 60.7713C70.9513 61.3649 72.0454 61.6824 73.1632 61.6875C74.2779 61.686 75.369 61.3682 76.3089 60.7713C79.3457 61.7478 81.4872 64.0624 81.4872 66.799V74.5144H80.1684Z" fill="#002149"/>
<path d="M82.8422 44.7374H82.3945V37.034C82.3945 34.1045 80.2531 31.585 77.1679 30.3915C78.2846 29.365 78.968 27.9539 79.0797 26.4441C79.1914 24.9343 78.723 23.4386 77.7693 22.26C76.8157 21.0814 75.4481 20.308 73.9436 20.0966C72.4392 19.8851 70.9103 20.2513 69.6666 21.121C69.5724 21.1928 69.5098 21.2982 69.4917 21.415C69.4737 21.5318 69.5016 21.6511 69.5698 21.7478C69.6314 21.8273 69.7158 21.8862 69.8118 21.9166C69.8767 21.9365 69.9453 21.9414 70.0123 21.9309C70.0794 21.9205 70.1432 21.895 70.199 21.8563C71.0603 21.2331 72.0986 20.8995 73.1632 20.9039C74.512 20.9071 75.8045 21.4433 76.7571 22.3947C77.7097 23.3462 78.2446 24.6353 78.2446 25.9793C78.2453 26.7752 78.0558 27.5599 77.6919 28.2685C77.3279 28.977 76.7999 29.589 76.1515 30.054C75.7832 30.33 75.3754 30.5494 74.9417 30.7049C73.7764 31.1679 72.4773 31.1679 71.312 30.7049C70.8788 30.5485 70.4711 30.3291 70.1021 30.054C69.3102 29.4881 68.7006 28.7048 68.3478 27.7996C68.3208 27.7376 68.2809 27.6819 68.2309 27.6363C68.1809 27.5906 68.1218 27.5558 68.0574 27.5344C67.9631 27.504 67.8615 27.504 67.7671 27.5344C67.7111 27.5545 67.6598 27.5856 67.616 27.6257C67.5722 27.6658 67.5369 27.7142 67.5122 27.7681C67.4874 27.8219 67.4736 27.8802 67.4717 27.9394C67.4698 27.9987 67.4796 28.0577 67.5009 28.1131C67.8381 28.9817 68.3772 29.7584 69.0738 30.3795C66.0007 31.585 63.8592 34.1046 63.8592 37.022V44.7253H58.8624V37.022C58.8624 34.0925 56.7209 31.5729 53.6357 30.3795C54.5548 29.5684 55.2044 28.498 55.4984 27.3103C55.7923 26.1226 55.7166 24.8739 55.2814 23.73C54.8461 22.5862 54.0719 21.6014 53.0615 20.9065C52.0512 20.2115 50.8526 19.8394 49.6249 19.8394C48.3972 19.8394 47.1986 20.2115 46.1882 20.9065C45.1779 21.6014 44.4037 22.5862 43.9684 23.73C43.5332 24.8739 43.4575 26.1226 43.7515 27.3103C44.0454 28.498 44.6951 29.5684 45.6142 30.3795C42.529 31.585 40.3875 34.0925 40.3875 37.022V44.7253H35.3907V37.022C35.3907 34.0925 33.2492 31.5729 30.164 30.3795C31.2807 29.3529 31.9641 27.9418 32.0758 26.432C32.1875 24.9222 31.7191 23.4265 30.7654 22.2479C29.8118 21.0693 28.4442 20.296 26.9397 20.0845C25.4353 19.873 23.9063 20.2392 22.6627 21.1089C22.6148 21.1435 22.5742 21.1873 22.5434 21.2376C22.5125 21.288 22.492 21.3439 22.483 21.4022C22.474 21.4605 22.4767 21.52 22.4909 21.5773C22.5052 21.6345 22.5307 21.6884 22.566 21.7358C22.6253 21.8123 22.7049 21.8708 22.7958 21.9046C22.8627 21.9246 22.9332 21.9296 23.0022 21.9191C23.0713 21.9087 23.1371 21.8831 23.195 21.8443C24.0564 21.221 25.0947 20.8874 26.1593 20.8919C27.5081 20.8951 28.8005 21.4312 29.7532 22.3827C30.7058 23.3341 31.2408 24.6232 31.2408 25.9672C31.2414 26.7632 31.052 27.5478 30.688 28.2564C30.3241 28.9649 29.7961 29.577 29.1477 30.0419C28.7803 30.3194 28.3722 30.5389 27.9378 30.6929C27.3716 30.9159 26.7681 31.0304 26.1593 31.0305C25.5466 31.0291 24.9395 30.9146 24.3687 30.6929C23.9354 30.5364 23.5277 30.3171 23.1588 30.0419C22.3639 29.4791 21.7535 28.6948 21.4044 27.7876C21.3774 27.7255 21.3376 27.6699 21.2875 27.6242C21.2375 27.5785 21.1784 27.5438 21.1141 27.5224C21.0197 27.4919 20.9181 27.4919 20.8237 27.5224C20.7678 27.5425 20.7164 27.5735 20.6726 27.6136C20.6289 27.6538 20.5936 27.7022 20.5688 27.756C20.544 27.8099 20.5303 27.8681 20.5283 27.9274C20.5264 27.9866 20.5363 28.0456 20.5575 28.101C20.8947 28.9696 21.4337 29.7463 22.1303 30.3674C19.0572 31.5729 16.9158 34.0925 16.9158 37.0099V44.7253C16.1133 44.7684 15.3578 45.1159 14.8043 45.6966C14.2508 46.2772 13.9414 47.0469 13.9395 47.8476V50.753C13.9379 50.8126 13.9482 50.8718 13.97 50.9274C13.9918 50.9829 14.0245 51.0335 14.0662 51.0762C14.1079 51.1189 14.1579 51.1529 14.213 51.176C14.2681 51.1992 14.3273 51.2111 14.3871 51.2111C14.5091 51.2111 14.626 51.1628 14.7122 51.0769C14.7984 50.991 14.8469 50.8745 14.8469 50.753V47.8476C14.8469 47.2561 15.0827 46.6889 15.5024 46.2706C15.9222 45.8524 16.4915 45.6174 17.0852 45.6174H82.7817C83.3753 45.6174 83.9446 45.8524 84.3644 46.2706C84.7841 46.6889 85.02 47.2561 85.02 47.8476V50.753C85.0092 50.8185 85.0129 50.8856 85.0307 50.9496C85.0485 51.0136 85.0801 51.073 85.1233 51.1236C85.1665 51.1743 85.2202 51.2149 85.2807 51.2428C85.3412 51.2707 85.407 51.2851 85.4737 51.2851C85.5404 51.2851 85.6062 51.2707 85.6667 51.2428C85.7272 51.2149 85.7809 51.1743 85.8241 51.1236C85.8673 51.073 85.8989 51.0136 85.9167 50.9496C85.9345 50.8856 85.9382 50.8185 85.9274 50.753V47.8476C85.9182 47.0318 85.5913 46.2515 85.0157 45.6712C84.4401 45.0909 83.6608 44.7561 82.8422 44.7374ZM33.2371 44.7374H17.8837V37.034C17.8837 34.3215 20.0252 32.0069 23.062 31.0063C24.0107 31.5922 25.1036 31.9051 26.2197 31.9105C27.3324 31.9073 28.4221 31.5942 29.3655 31.0063C32.4023 31.9708 34.5437 34.2854 34.5437 37.034V44.7374H33.2371ZM44.5978 25.9793C44.5642 25.2928 44.6709 24.6066 44.9115 23.9624C45.152 23.3182 45.5212 22.7294 45.997 22.2317C46.4727 21.734 47.0449 21.3378 47.679 21.067C48.313 20.7963 48.9956 20.6567 49.6854 20.6567C50.3752 20.6567 51.0578 20.7963 51.6918 21.067C52.3259 21.3378 52.8981 21.734 53.3738 22.2317C53.8496 22.7294 54.2188 23.3182 54.4594 23.9624C54.6999 24.6066 54.8066 25.2928 54.773 25.9793C54.7736 26.7752 54.5841 27.5599 54.2202 28.2685C53.8562 28.977 53.3282 29.589 52.6798 30.054C52.3124 30.3314 51.9043 30.551 51.4699 30.7049C50.3237 31.158 49.0471 31.158 47.9009 30.7049C47.4676 30.5485 47.0599 30.3291 46.691 30.054C46.0447 29.587 45.5183 28.9745 45.1546 28.2664C44.7909 27.5584 44.6001 26.7747 44.5978 25.9793V25.9793ZM56.6966 44.7374H41.3554V37.034C41.3554 34.3215 43.4969 32.0069 46.5337 31.0063C47.4781 31.597 48.5704 31.9103 49.6854 31.9103C50.8004 31.9103 51.8928 31.597 52.8371 31.0063C55.8739 31.9708 58.0154 34.2854 58.0154 37.034V44.7374H56.6966ZM80.1684 44.7374H64.8271V37.034C64.8271 34.3215 66.9806 32.0069 70.0053 31.0063C70.9541 31.5922 72.047 31.9051 73.1632 31.9105C74.2758 31.9073 75.3654 31.5942 76.3088 31.0063C79.3456 31.9708 81.4871 34.2854 81.4871 37.034V44.7374H80.1684Z" fill="#002149"/>
<path d="M20.727 25.0391H20.8479C20.9485 25.0416 21.0468 25.0093 21.1262 24.9478C21.2056 24.8863 21.2612 24.7993 21.2835 24.7016C21.3896 24.2798 21.5523 23.8743 21.7674 23.496C21.8239 23.3903 21.8365 23.2667 21.8026 23.1517C21.7687 23.0368 21.6909 22.9397 21.586 22.8812C21.5338 22.8517 21.4761 22.833 21.4165 22.8262C21.3569 22.8193 21.2966 22.8245 21.239 22.8414C21.1814 22.8582 21.1279 22.8865 21.0815 22.9244C21.0351 22.9623 20.9968 23.0091 20.9689 23.062C20.7228 23.5075 20.5318 23.9812 20.4003 24.4725C20.382 24.5311 20.3762 24.5928 20.383 24.6537C20.3898 24.7147 20.409 24.7736 20.4397 24.8267C20.4704 24.8799 20.5117 24.9262 20.5611 24.9627C20.6105 24.9993 20.667 25.0253 20.727 25.0391V25.0391Z" fill="#002149"/>
<path d="M67.6823 25.0391H67.7913C67.8918 25.0416 67.9901 25.0093 68.0695 24.9478C68.1489 24.8863 68.2045 24.7993 68.2268 24.7016C68.3328 24.2798 68.4956 23.8743 68.7107 23.496C68.7671 23.3903 68.7798 23.2667 68.7459 23.1517C68.7119 23.0368 68.6342 22.9397 68.5293 22.8812C68.4771 22.8517 68.4195 22.833 68.3599 22.8262C68.3003 22.8193 68.2398 22.8245 68.1823 22.8414C68.1247 22.8582 68.0712 22.8865 68.0248 22.9244C67.9784 22.9623 67.9401 23.0091 67.9122 23.062C67.6648 23.5055 67.4776 23.9799 67.3556 24.4725C67.3355 24.5311 67.3281 24.5932 67.334 24.6548C67.3399 24.7164 67.359 24.776 67.3899 24.8297C67.4208 24.8833 67.4629 24.9298 67.5134 24.9659C67.5638 25.002 67.6214 25.027 67.6823 25.0391V25.0391Z" fill="#002149"/>
<path d="M20.8478 54.8278C20.9484 54.8303 21.0468 54.798 21.1262 54.7365C21.2056 54.675 21.2611 54.588 21.2835 54.4902C21.3877 54.0679 21.5506 53.6622 21.7674 53.2847C21.8137 53.1804 21.8193 53.0627 21.7832 52.9545C21.747 52.8463 21.6717 52.7554 21.5718 52.6996C21.472 52.6439 21.3549 52.6272 21.2434 52.6529C21.1319 52.6786 21.034 52.7449 20.9689 52.8387C20.7247 53.2851 20.5338 53.7584 20.4002 54.2491C20.3707 54.3658 20.3884 54.4893 20.4495 54.5931C20.5106 54.6969 20.6103 54.7725 20.7269 54.8037L20.8478 54.8278Z" fill="#002149"/>
<path d="M67.7913 54.8278C67.8919 54.8303 67.9902 54.798 68.0696 54.7365C68.1489 54.675 68.2045 54.588 68.2268 54.4902C68.3311 54.0679 68.494 53.6622 68.7108 53.2847C68.7571 53.1804 68.7628 53.0627 68.7266 52.9545C68.6905 52.8463 68.615 52.7554 68.5152 52.6996C68.4154 52.6439 68.2983 52.6272 68.1867 52.6529C68.0752 52.6786 67.9774 52.7449 67.9123 52.8387C67.6669 53.2831 67.4798 53.7571 67.3557 54.2491C67.3375 54.3069 67.3317 54.3678 67.3386 54.428C67.3455 54.4882 67.3649 54.5463 67.3957 54.5985C67.4265 54.6507 67.4679 54.696 67.5173 54.7313C67.5666 54.7666 67.6229 54.7913 67.6824 54.8037L67.7913 54.8278Z" fill="#002149"/>
</g>
<defs>
<clipPath id="clip0_309_36">
<rect width="72" height="61" fill="white" transform="translate(14 20)"/>
</clipPath>
</defs>
</svg>
