<svg width="100" height="100" viewBox="0 0 100 100" fill="none" xmlns="http://www.w3.org/2000/svg">
<g clip-path="url(#clip0_309_69)">
<path d="M24.6925 45.0642C24.5792 45.0338 24.4587 45.0475 24.3552 45.1026C24.2516 45.1576 24.1729 45.2499 24.1348 45.3608C22.271 51.3784 22.8078 57.8836 25.6325 63.5145C28.4573 69.1455 33.3511 73.4655 39.2896 75.5705H39.432C39.5247 75.5695 39.615 75.5407 39.6912 75.4878C39.7674 75.4349 39.8259 75.3604 39.8592 75.2738C39.8973 75.1621 39.8902 75.0398 39.8391 74.9333C39.7881 74.8268 39.6973 74.7446 39.5862 74.7043C33.8639 72.6777 29.148 68.5153 26.4269 63.0895C23.7058 57.6636 23.1906 51.3954 24.9892 45.5981C25.0158 45.4881 25 45.3722 24.9451 45.2733C24.8901 45.1744 24.7999 45.0997 24.6925 45.0642Z" fill="#002149"/>
<path d="M25.6182 42.7145C25.6805 42.7306 25.7458 42.7306 25.8081 42.7145C25.8918 42.7145 25.9739 42.6912 26.0452 42.6472C26.1165 42.6032 26.1741 42.5402 26.2116 42.4653C26.5083 41.8483 26.8287 41.2788 27.1847 40.638C27.2245 40.5874 27.2529 40.5288 27.2682 40.4662C27.2834 40.4036 27.2851 40.3385 27.273 40.2753C27.261 40.212 27.2355 40.1521 27.1983 40.0995C27.1612 40.0469 27.1132 40.0028 27.0576 39.9703C27.002 39.9378 26.9401 39.9176 26.876 39.911C26.8119 39.9045 26.7472 39.9117 26.6862 39.9322C26.6251 39.9528 26.5692 39.9861 26.5221 40.0301C26.475 40.0741 26.4379 40.1276 26.4133 40.1871C26.0573 40.8041 25.7132 41.3737 25.4046 42.0737C25.3706 42.1285 25.349 42.1901 25.3415 42.2541C25.334 42.3182 25.3406 42.3831 25.361 42.4442C25.3814 42.5054 25.4151 42.5613 25.4595 42.608C25.504 42.6547 25.5581 42.6911 25.6182 42.7145Z" fill="#002149"/>
<path d="M28.0273 26.3875C28.1202 26.3835 28.2103 26.3548 28.2884 26.3044C28.6919 26.0078 29.1073 25.7111 29.4752 25.4382C29.556 25.3666 29.6085 25.2683 29.6229 25.1612C29.6374 25.0541 29.613 24.9454 29.554 24.8548C29.4951 24.7643 29.4056 24.6979 29.3018 24.6678C29.1981 24.6377 29.0869 24.6458 28.9886 24.6907C28.5535 24.9755 28.1262 25.2721 27.7069 25.5806C27.6586 25.6136 27.6175 25.6562 27.5863 25.7057C27.555 25.7553 27.5344 25.8106 27.5255 25.8685C27.5166 25.9264 27.5197 25.9854 27.5345 26.0421C27.5494 26.0987 27.5758 26.1516 27.612 26.1976C27.6571 26.2643 27.7198 26.3173 27.793 26.3508C27.8663 26.3843 27.9473 26.397 28.0273 26.3875Z" fill="#002149"/>
<path d="M72.0676 73.7785C69.2001 77.1406 65.6772 79.8831 61.7141 81.8384C57.751 83.7937 53.4307 84.9206 49.0174 85.1506C44.604 85.3805 40.1901 84.7086 36.0452 83.1758C31.9003 81.643 28.1114 79.2815 24.9098 76.2356C21.7083 73.1896 19.1614 69.5232 17.4246 65.4601C15.6878 61.397 14.7976 57.0225 14.8083 52.6039C14.8191 48.1853 15.7306 43.8152 17.4872 39.7606C19.2438 35.7061 21.8086 32.052 25.0249 29.0217C25.0994 28.9373 25.1396 28.8281 25.1377 28.7156C25.1358 28.6031 25.0918 28.4954 25.0145 28.4136C24.9372 28.3318 24.832 28.2819 24.7198 28.2737C24.6075 28.2654 24.4962 28.2995 24.4078 28.3691C21.1041 31.4785 18.4754 35.2339 16.6849 39.4021C14.8945 43.5703 13.9806 48.0622 14.0001 52.5985C14.0017 59.419 16.0916 66.0755 19.9888 71.6733C23.8861 77.271 29.4039 81.5418 35.8005 83.9114C42.1972 86.281 49.1661 86.6359 55.7705 84.9284C62.3749 83.2209 68.2981 79.5328 72.7441 74.3599C72.826 74.2757 72.8718 74.1629 72.8718 74.0454C72.8718 73.928 72.826 73.8152 72.7441 73.731C72.6995 73.684 72.645 73.6474 72.5846 73.6238C72.5242 73.6003 72.4593 73.5906 72.3946 73.5951C72.3299 73.5996 72.2671 73.6184 72.2105 73.6501C72.154 73.6818 72.1052 73.7257 72.0676 73.7785Z" fill="#002149"/>
<path d="M77.4911 29.8996C77.8111 29.903 78.1285 29.8418 78.4242 29.7194C78.7199 29.5971 78.9878 29.4162 79.2118 29.1877L85.6322 22.7684C85.8052 22.6046 85.9249 22.3925 85.9757 22.1597C86.0265 21.9269 86.0061 21.6842 85.917 21.4632C85.8408 21.2369 85.6981 21.0388 85.5076 20.8948C85.317 20.7509 85.0874 20.6678 84.8489 20.6564L80.3392 20.3004L83.7571 16.8831C83.8363 16.7976 83.8804 16.6853 83.8804 16.5687C83.8804 16.4521 83.8363 16.3398 83.7571 16.2542C83.7162 16.2122 83.6672 16.1789 83.6132 16.1561C83.5592 16.1334 83.5012 16.1216 83.4426 16.1216C83.3839 16.1216 83.3259 16.1334 83.2719 16.1561C83.2179 16.1789 83.169 16.2122 83.1281 16.2542L79.7222 19.719L79.3661 15.2101C79.3547 14.9716 79.2715 14.742 79.1276 14.5515C78.9836 14.361 78.7855 14.2183 78.5591 14.1422C78.3381 14.0531 78.0954 14.0326 77.8625 14.0834C77.6297 14.1342 77.4176 14.2539 77.2537 14.427L70.8334 20.8462C70.5928 21.0811 70.405 21.3644 70.2822 21.6774C70.1595 21.9904 70.1047 22.3259 70.1214 22.6616L70.3587 28.4283C65.1148 23.4462 58.3928 20.304 51.2066 19.4757C44.0204 18.6474 36.7597 20.1779 30.5196 23.8363C30.4685 23.8647 30.4235 23.903 30.3874 23.9489C30.3513 23.9949 30.3247 24.0476 30.3092 24.1039C30.2938 24.1603 30.2897 24.2192 30.2973 24.2771C30.3049 24.3351 30.3239 24.391 30.3534 24.4415C30.4152 24.5432 30.5138 24.6171 30.6287 24.6481C30.7437 24.679 30.8661 24.6645 30.9705 24.6076C37.1054 21.0034 44.2551 19.5156 51.3187 20.3733C58.3824 21.2309 64.9682 24.3863 70.062 29.3538L64.2826 35.1442C61.8446 32.7873 58.9401 30.967 55.756 29.8002C52.5719 28.6335 49.1788 28.1462 45.795 28.3697C42.4112 28.5932 39.1117 29.5226 36.1088 31.0981C33.106 32.6736 30.4663 34.8602 28.3597 37.5173C28.3231 37.5624 28.2957 37.6144 28.2791 37.6702C28.2626 37.7259 28.2572 37.7844 28.2633 37.8423C28.2693 37.9001 28.2867 37.9562 28.3145 38.0073C28.3422 38.0584 28.3798 38.1036 28.4249 38.1402C28.4701 38.1768 28.5221 38.2042 28.5779 38.2207C28.6336 38.2373 28.6922 38.2426 28.75 38.2366C28.8079 38.2305 28.864 38.2131 28.9151 38.1854C28.9662 38.1576 29.0114 38.1201 29.048 38.0749C31.0766 35.5075 33.6208 33.3938 36.5167 31.8701C39.4126 30.3463 42.5957 29.4464 45.8609 29.2284C49.126 29.0104 52.4006 29.4791 55.4734 30.6043C58.5463 31.7295 61.3491 33.4862 63.7011 35.7612L57.9215 41.5278C55.7945 39.5283 53.1387 38.1802 50.269 37.6433C47.3992 37.1063 44.4357 37.403 41.7294 38.4982C39.023 39.5933 36.6874 41.4411 34.999 43.8226C33.3106 46.2041 32.3403 49.0196 32.203 51.9354C32.0657 54.8513 32.7672 57.7454 34.2243 60.275C35.6813 62.8045 37.833 64.8636 40.4245 66.2082C43.0159 67.5527 45.9385 68.1265 48.846 67.8615C51.7535 67.5966 54.5242 66.5039 56.8298 64.713C56.8776 64.678 56.9178 64.6337 56.948 64.5827C56.9783 64.5317 56.9979 64.4751 57.0056 64.4163C57.0134 64.3575 57.0092 64.2978 56.9932 64.2408C56.9773 64.1837 56.9499 64.1304 56.9128 64.0842C56.8401 63.9903 56.7332 63.9289 56.6154 63.9133C56.4977 63.8978 56.3785 63.9293 56.2839 64.0011C53.7626 65.9795 50.6476 67.0497 47.4426 67.0387C45.0933 67.0386 42.7796 66.464 40.7032 65.3651C38.6268 64.2662 36.8507 62.6763 35.5296 60.7339C34.2086 58.7915 33.3827 56.5555 33.1239 54.2209C32.8651 51.8862 33.1812 49.5237 34.0448 47.3392C34.9083 45.1547 36.2931 43.2144 38.0784 41.6876C39.8636 40.1607 41.9953 39.0935 44.2876 38.579C46.5798 38.0645 48.9632 38.1183 51.2299 38.7356C53.4967 39.353 55.578 40.5153 57.2926 42.1211L51.5487 47.8759C50.3066 46.797 48.6942 46.2423 47.0511 46.3287C45.408 46.4152 43.8626 47.136 42.7407 48.3393C41.6187 49.5426 41.0078 51.1344 41.0366 52.7793C41.0654 54.4241 41.7318 55.9935 42.8952 57.1568C44.0587 58.32 45.6284 58.9863 47.2735 59.0151C48.9186 59.044 50.5106 58.4331 51.7142 57.3113C52.9177 56.1896 53.6386 54.6445 53.7251 53.0016C53.8116 51.3588 53.2568 49.7466 52.1777 48.5047L57.9215 42.75C60.4615 45.4316 61.8692 48.9894 61.8515 52.6826C61.8338 56.3759 60.3922 59.92 57.8267 62.5772C57.757 62.6657 57.723 62.7769 57.7312 62.8892C57.7394 63.0014 57.7893 63.1065 57.8711 63.1838C57.9529 63.2612 58.0606 63.3051 58.1732 63.307C58.2857 63.309 58.395 63.2687 58.4794 63.1943C61.1993 60.3648 62.7243 56.5964 62.7376 52.6719C62.7508 48.7475 61.2513 44.9688 58.5506 42.1211L64.33 36.3544C67.5352 39.6693 69.6906 43.8564 70.5261 48.3908C71.3616 52.9252 70.84 57.6053 69.0267 61.8446C67.2133 66.0839 64.1889 69.6938 60.3325 72.222C56.476 74.7501 51.9591 76.084 47.3477 76.0565C46.0396 76.0569 44.7338 75.9498 43.4433 75.7361C43.3856 75.7268 43.3267 75.7289 43.2698 75.7423C43.2129 75.7557 43.1593 75.7802 43.1119 75.8144C43.0645 75.8485 43.0243 75.8917 42.9936 75.9414C42.9629 75.9911 42.9423 76.0463 42.933 76.104C42.9236 76.1616 42.9257 76.2205 42.9391 76.2773C42.9526 76.3342 42.9771 76.3878 43.0112 76.4352C43.0454 76.4826 43.0886 76.5228 43.1383 76.5535C43.188 76.5842 43.2432 76.6048 43.3009 76.6142C48.3543 77.4722 53.5496 76.7124 58.1455 74.4433C62.7415 72.1742 66.5032 68.5116 68.8939 63.9783C71.2846 59.445 72.1821 54.2725 71.4585 49.1989C70.7348 44.1254 68.4269 39.41 64.8641 35.7256L70.6435 29.9471C75.9217 35.3611 79.1452 42.4468 79.7583 49.9824C80.3714 57.518 78.3357 65.0314 74.002 71.2272C73.9677 71.2755 73.9432 71.3301 73.93 71.3878C73.9168 71.4456 73.9152 71.5054 73.9251 71.5638C73.935 71.6222 73.9563 71.678 73.9878 71.7282C74.0194 71.7783 74.0605 71.8218 74.1088 71.8561C74.1878 71.9029 74.2781 71.9275 74.3699 71.9273C74.4405 71.9285 74.5102 71.9117 74.5725 71.8785C74.6348 71.8452 74.6876 71.7967 74.7259 71.7375C79.1354 65.439 81.2332 57.8108 80.6645 50.1438C80.0957 42.4767 76.8953 35.2414 71.6048 29.6623L77.3487 29.8996H77.4911ZM71.4624 21.4157L77.8827 14.9965C77.913 14.9636 77.9497 14.9372 77.9904 14.9189C78.0312 14.9005 78.0753 14.8906 78.12 14.8897H78.2505C78.3143 14.9149 78.37 14.9569 78.4118 15.0112C78.4536 15.0655 78.4799 15.1302 78.4879 15.1982L78.8914 20.4665L71.2369 28.1197L71.0114 22.543C71.0043 22.3341 71.0407 22.126 71.1183 21.932C71.196 21.7379 71.3131 21.5621 71.4624 21.4157ZM52.7949 52.5983C52.8109 53.848 52.3984 55.0656 51.6261 56.0483C50.8537 57.031 49.7681 57.7196 48.5499 57.9996C47.3317 58.2795 46.0542 58.1339 44.9303 57.587C43.8063 57.04 42.9035 56.1248 42.3722 54.9935C41.8409 53.8622 41.7131 52.5831 42.01 51.3691C42.307 50.1551 43.0108 49.0793 44.0043 48.3209C44.9979 47.5625 46.2212 47.1671 47.4708 47.2005C48.7204 47.234 49.9207 47.6942 50.8723 48.5047L48.8192 50.5693C48.3994 50.2832 47.9031 50.1302 47.3951 50.1303C46.8993 50.1303 46.4148 50.2775 46.0027 50.5531C45.5907 50.8287 45.2697 51.2204 45.0806 51.6786C44.8914 52.1368 44.8425 52.6408 44.9401 53.1268C45.0377 53.6127 45.2774 54.0588 45.6287 54.4085C45.9801 54.7581 46.4274 54.9956 46.9139 55.0909C47.4004 55.1862 47.9043 55.1349 48.3616 54.9436C48.819 54.7522 49.2092 54.4295 49.4829 54.0162C49.7566 53.603 49.9015 53.1178 49.8992 52.6221C49.8987 52.1161 49.7411 51.6227 49.4482 51.2101L51.5013 49.1573C52.3262 50.1151 52.7846 51.3344 52.7949 52.5983ZM79.5204 21.131L84.7777 21.5344C84.8453 21.5397 84.9101 21.5642 84.9643 21.605C85.0185 21.6459 85.0599 21.7014 85.0836 21.765C85.1073 21.8286 85.1123 21.8976 85.098 21.964C85.0838 22.0304 85.0509 22.0913 85.0031 22.1396L78.5829 28.5588C78.4303 28.7164 78.2448 28.8385 78.0397 28.9164C77.8346 28.9943 77.6149 29.0262 77.3961 29.0097L71.8303 28.7843L79.5204 21.131Z" fill="#002149"/>
</g>
<defs>
<clipPath id="clip0_309_69">
<rect width="72" height="72" fill="white" transform="translate(14 14)"/>
</clipPath>
</defs>
</svg>
