<?xml version="1.0" encoding="UTF-8"?> <svg xmlns="http://www.w3.org/2000/svg" width="64" height="64" viewBox="0 0 64 64" fill="none"><g clip-path="url(#clip0_27_2329)"><path d="M58.9002 52.22H58.5301V45.82C58.5301 43.4 56.7602 41.31 54.2102 40.32C55.1332 39.4685 55.6981 38.298 55.7904 37.0456C55.8827 35.7932 55.4955 34.5525 54.7073 33.5749C53.9191 32.5972 52.7887 31.9557 51.5452 31.7803C50.3018 31.6048 49.0381 31.9086 48.0102 32.63C47.9323 32.6896 47.8805 32.777 47.8656 32.8739C47.8507 32.9708 47.8738 33.0698 47.9301 33.15C47.9789 33.2161 48.05 33.2622 48.1301 33.28C48.1834 33.2989 48.2406 33.3043 48.2965 33.2956C48.3523 33.2868 48.4052 33.2643 48.4502 33.23C49.3532 32.5776 50.4784 32.3106 51.5783 32.4878C52.6782 32.665 53.6627 33.272 54.3151 34.175C54.9676 35.0781 55.2346 36.2033 55.0573 37.3032C54.8801 38.4031 54.2732 39.3876 53.3701 40.04C53.0617 40.2628 52.7256 40.4443 52.3701 40.58C51.9007 40.7602 51.4029 40.855 50.9002 40.86C50.3938 40.8589 49.8919 40.7639 49.4201 40.58C49.0657 40.4421 48.7298 40.2607 48.4201 40.04C47.7699 39.5661 47.2672 38.9178 46.9701 38.17C46.9495 38.1175 46.9172 38.0703 46.8756 38.0322C46.834 37.9941 46.7843 37.966 46.7301 37.95C46.6521 37.9248 46.5681 37.9248 46.4901 37.95C46.396 37.9859 46.32 38.0576 46.2787 38.1495C46.2375 38.2414 46.2344 38.3458 46.2702 38.44C46.5525 39.1586 46.9975 39.8021 47.5702 40.32C45.0302 41.32 43.2602 43.4 43.2602 45.82V52.22H39.1301V45.82C39.1301 43.4 37.3601 41.31 34.8101 40.32C35.5698 39.6472 36.1067 38.7593 36.3497 37.7741C36.5927 36.7889 36.5301 35.7531 36.1704 34.8043C35.8106 33.8555 35.1707 33.0386 34.3357 32.4621C33.5006 31.8856 32.5099 31.5769 31.4951 31.5769C30.4804 31.5769 29.4897 31.8856 28.6546 32.4621C27.8195 33.0386 27.1797 33.8555 26.8199 34.8043C26.4602 35.7531 26.3976 36.7889 26.6406 37.7741C26.8835 38.7593 27.4205 39.6472 28.1801 40.32C25.6301 41.32 23.8601 43.4 23.8601 45.82V52.22H19.7301V45.82C19.7301 43.4 17.9601 41.31 15.4101 40.32C16.3331 39.4685 16.8981 38.298 16.9904 37.0456C17.0827 35.7932 16.6955 34.5525 15.9073 33.5749C15.1191 32.5972 13.9888 31.9557 12.7453 31.7803C11.5018 31.6048 10.2381 31.9086 9.21017 32.63C9.17055 32.6587 9.13703 32.695 9.11153 32.7368C9.08604 32.7785 9.06905 32.825 9.06161 32.8733C9.05417 32.9217 9.05637 32.971 9.06814 33.0185C9.0799 33.066 9.101 33.1107 9.13015 33.15C9.17701 33.2135 9.24397 33.2593 9.32015 33.28C9.37464 33.3017 9.4339 33.3086 9.4919 33.2998C9.54991 33.291 9.60457 33.2669 9.65017 33.23C10.0973 32.907 10.6037 32.6751 11.1405 32.5478C11.6772 32.4204 12.2337 32.4001 12.7783 32.4878C13.323 32.5756 13.845 32.7697 14.3145 33.0592C14.7841 33.3487 15.1921 33.7279 15.5152 34.175C15.8382 34.6222 16.07 35.1286 16.1973 35.6653C16.3247 36.2021 16.3451 36.7586 16.2573 37.3032C16.1696 37.8478 15.9754 38.3698 15.6859 38.8394C15.3964 39.309 15.0173 39.717 14.5702 40.04C14.2617 40.2628 13.9256 40.4443 13.5702 40.58C13.1007 40.7602 12.6029 40.855 12.1001 40.86C11.5937 40.8589 11.0919 40.7639 10.6201 40.58C10.2657 40.4421 9.92981 40.2607 9.62014 40.04C8.96991 39.5661 8.46716 38.9178 8.17013 38.17C8.14955 38.1175 8.11724 38.0703 8.07564 38.0322C8.03405 37.9941 7.98427 37.966 7.93014 37.95C7.85212 37.9248 7.76816 37.9248 7.69015 37.95C7.59603 37.9859 7.51997 38.0576 7.47872 38.1495C7.43747 38.2414 7.43436 38.3458 7.47011 38.44C7.75248 39.1586 8.19748 39.8021 8.77016 40.32C6.23016 41.32 4.46017 43.4 4.46017 45.82V52.23C3.79603 52.2634 3.17013 52.5509 2.71218 53.0331C2.25423 53.5152 1.99931 54.155 2.00014 54.82V57.23C1.99876 57.279 2.00737 57.3277 2.02547 57.3732C2.04358 57.4187 2.07079 57.4601 2.10543 57.4947C2.14007 57.5294 2.18144 57.5565 2.22695 57.5746C2.27246 57.5928 2.32117 57.6014 2.37014 57.6C2.41956 57.6013 2.46874 57.5928 2.51479 57.5748C2.56084 57.5568 2.60284 57.5297 2.63827 57.4952C2.67369 57.4607 2.70181 57.4195 2.72103 57.374C2.74025 57.3284 2.75016 57.2795 2.75014 57.23V54.82C2.75014 54.3294 2.94507 53.8588 3.29201 53.5119C3.63896 53.1649 4.10947 52.97 4.60012 52.97H58.9002C59.1431 52.97 59.3837 53.0179 59.6081 53.1108C59.8326 53.2038 60.0365 53.3401 60.2083 53.5119C60.3801 53.6837 60.5164 53.8876 60.6093 54.1121C60.7023 54.3365 60.7501 54.5771 60.7501 54.82V57.23C60.7647 57.319 60.8104 57.3998 60.8791 57.4582C60.9478 57.5165 61.035 57.5486 61.1251 57.5486C61.2153 57.5486 61.3025 57.5165 61.3712 57.4582C61.4399 57.3998 61.4856 57.319 61.5001 57.23V54.82C61.5001 54.1304 61.2262 53.4691 60.7386 52.9815C60.251 52.4939 59.5897 52.22 58.9002 52.22ZM17.9002 52.22H5.21017V45.82C5.21017 43.58 6.98013 41.66 9.49013 40.82C10.2719 41.3124 11.1762 41.5758 12.1001 41.58C13.0214 41.5788 13.9233 41.3151 14.7002 40.82C17.2102 41.63 18.9801 43.55 18.9801 45.82V52.22H17.9002ZM27.2901 36.66C27.2851 35.9382 27.4658 35.2273 27.8147 34.5954C28.1637 33.9636 28.6693 33.4321 29.2829 33.0519C29.8964 32.6718 30.5974 32.4558 31.3186 32.4247C32.0397 32.3936 32.7567 32.5484 33.4008 32.8743C34.0448 33.2002 34.5943 33.6862 34.9964 34.2856C35.3984 34.8851 35.6396 35.5778 35.6968 36.2973C35.754 37.0169 35.6252 37.739 35.3228 38.3944C35.0205 39.0499 34.5546 39.6165 33.9701 40.04C33.6617 40.2628 33.3255 40.4443 32.9701 40.58C32.0227 40.9559 30.9676 40.9559 30.0202 40.58C29.6657 40.4421 29.3298 40.2607 29.0202 40.04C28.4866 39.6521 28.0519 39.1439 27.7514 38.5567C27.4508 37.9694 27.2928 37.3197 27.2901 36.66ZM37.2901 52.22H24.6101V45.82C24.6101 43.58 26.3802 41.66 28.8902 40.82C29.6682 41.3169 30.572 41.5808 31.4951 41.5808C32.4183 41.5808 33.3221 41.3169 34.1001 40.82C36.6101 41.63 38.3801 43.55 38.3801 45.82V52.22H37.2901ZM56.6901 52.22H44.0102V45.82C44.0102 43.58 45.7901 41.66 48.2901 40.82C49.0719 41.3124 49.9762 41.5758 50.9002 41.58C51.8214 41.5788 52.7232 41.3151 53.5001 40.82C56.0101 41.63 57.7801 43.55 57.7801 45.82V52.22H56.6901Z" fill="black"></path><path d="M58.9003 27.52H58.5303V21.13C58.5303 18.7 56.7603 16.61 54.2103 15.62C55.1334 14.7685 55.6982 13.598 55.7905 12.3456C55.8829 11.0931 55.4957 9.85245 54.7075 8.87482C53.9193 7.89718 52.7889 7.25566 51.5454 7.08023C50.3019 6.9048 49.0382 7.20858 48.0103 7.92999C47.9325 7.98961 47.8807 8.07698 47.8658 8.17389C47.8509 8.2708 47.874 8.36973 47.9303 8.44998C47.9812 8.51587 48.051 8.56472 48.1303 8.59C48.184 8.60647 48.2407 8.61053 48.2961 8.60187C48.3515 8.59321 48.4043 8.57203 48.4503 8.53998C49.1623 8.02299 50.0205 7.74626 50.9003 7.74997C52.0152 7.75262 53.0834 8.19736 53.8708 8.9866C54.6582 9.77584 55.1003 10.8452 55.1003 11.96C55.1009 12.6202 54.9443 13.2711 54.6434 13.8589C54.3426 14.4466 53.9062 14.9543 53.3703 15.34C53.0659 15.569 52.7288 15.751 52.3703 15.88C51.4072 16.264 50.3334 16.264 49.3703 15.88C49.0122 15.7502 48.6753 15.5682 48.3703 15.34C47.7157 14.8706 47.2119 14.2208 46.9203 13.47C46.898 13.4185 46.865 13.3724 46.8237 13.3345C46.7823 13.2966 46.7335 13.2678 46.6803 13.25C46.6023 13.2247 46.5183 13.2247 46.4403 13.25C46.3941 13.2667 46.3516 13.2924 46.3154 13.3257C46.2793 13.359 46.2501 13.3991 46.2296 13.4438C46.2091 13.4885 46.1978 13.5368 46.1962 13.586C46.1946 13.6351 46.2028 13.6841 46.2203 13.73C46.499 14.4505 46.9446 15.0948 47.5203 15.61C44.9803 16.61 43.2103 18.7 43.2103 21.12V27.51H39.0803V21.12C39.0803 18.69 37.3103 16.6 34.7603 15.61C35.52 14.9372 36.0569 14.0493 36.2999 13.0641C36.5428 12.0789 36.4803 11.043 36.1206 10.0942C35.7608 9.14543 35.1209 8.32853 34.2858 7.75208C33.4507 7.17562 32.46 6.86688 31.4453 6.86688C30.4306 6.86688 29.4399 7.17562 28.6048 7.75208C27.7697 8.32853 27.1298 9.14543 26.7701 10.0942C26.4103 11.043 26.3478 12.0789 26.5908 13.0641C26.8337 14.0493 27.3707 14.9372 28.1303 15.61C25.5803 16.61 23.8103 18.69 23.8103 21.12V27.51H19.6803V21.12C19.6803 18.69 17.9103 16.6 15.3603 15.61C16.2833 14.7585 16.8482 13.588 16.9405 12.3355C17.0328 11.0831 16.6456 9.84244 15.8574 8.86481C15.0692 7.88717 13.9389 7.24568 12.6954 7.07025C11.4519 6.89482 10.1882 7.19857 9.16029 7.91998C9.12068 7.9487 9.08715 7.985 9.06166 8.02676C9.03616 8.06853 9.01923 8.11494 9.01179 8.1633C9.00435 8.21166 9.00656 8.26101 9.01832 8.3085C9.03009 8.356 9.05118 8.40067 9.08034 8.43997C9.12937 8.50345 9.19519 8.55195 9.27034 8.57999C9.32562 8.59659 9.38386 8.60072 9.44093 8.59207C9.498 8.58343 9.55242 8.5622 9.60029 8.52997C10.3123 8.01298 11.1704 7.73628 12.0503 7.73999C13.1651 7.74264 14.2334 8.18735 15.0208 8.97659C15.8081 9.76583 16.2503 10.8352 16.2503 11.95C16.2509 12.6102 16.0943 13.2611 15.7935 13.8489C15.4926 14.4366 15.0562 14.9443 14.5203 15.33C14.2166 15.5601 13.8794 15.7423 13.5203 15.87C13.0523 16.055 12.5536 16.15 12.0503 16.15C11.5439 16.1489 11.0421 16.0539 10.5703 15.87C10.2122 15.7402 9.87527 15.5582 9.57033 15.33C8.91329 14.8631 8.40883 14.2126 8.12031 13.46C8.09797 13.4085 8.06504 13.3624 8.02369 13.3245C7.98235 13.2866 7.93352 13.2578 7.88032 13.24C7.80231 13.2148 7.71834 13.2148 7.64033 13.24C7.5941 13.2567 7.55163 13.2824 7.51546 13.3157C7.47928 13.349 7.45012 13.3892 7.42964 13.4338C7.40916 13.4785 7.39779 13.5268 7.39619 13.576C7.3946 13.6251 7.40277 13.674 7.4203 13.72C7.69903 14.4405 8.14453 15.0848 8.72029 15.6C6.18029 16.6 4.41029 18.69 4.41029 21.11V27.51C3.747 27.5457 3.12257 27.834 2.66511 28.3156C2.20766 28.7973 1.95192 29.4357 1.95033 30.1V32.51C1.94899 32.5594 1.95754 32.6086 1.97554 32.6546C1.99353 32.7007 2.02058 32.7427 2.05507 32.7781C2.08956 32.8135 2.13085 32.8417 2.17641 32.8609C2.22196 32.8801 2.27088 32.89 2.32033 32.89C2.42111 32.89 2.51774 32.85 2.589 32.7787C2.66027 32.7074 2.70033 32.6108 2.70033 32.51V30.1C2.70033 29.6093 2.8952 29.1388 3.24214 28.7918C3.58908 28.4449 4.05966 28.25 4.55031 28.25H58.8503C59.3409 28.25 59.8115 28.4449 60.1585 28.7918C60.5054 29.1388 60.7003 29.6093 60.7003 30.1V32.51C60.6914 32.5644 60.6944 32.62 60.7092 32.6731C60.7239 32.7262 60.75 32.7754 60.7857 32.8174C60.8214 32.8594 60.8658 32.8932 60.9158 32.9163C60.9658 32.9394 61.0202 32.9514 61.0753 32.9514C61.1304 32.9514 61.1849 32.9394 61.2349 32.9163C61.2849 32.8932 61.3293 32.8594 61.3649 32.8174C61.4006 32.7754 61.4267 32.7262 61.4415 32.6731C61.4562 32.62 61.4592 32.5644 61.4503 32.51V30.1C61.4427 29.4232 61.1725 28.7759 60.6968 28.2946C60.221 27.8132 59.5769 27.5355 58.9003 27.52ZM17.9003 27.52H5.21034V21.13C5.21034 18.88 6.98031 16.96 9.49031 16.13C10.2745 16.616 11.1778 16.8755 12.1003 16.88C13.0199 16.8774 13.9206 16.6176 14.7003 16.13C17.2103 16.93 18.9803 18.85 18.9803 21.13V27.52H17.9003ZM27.2903 11.96C27.2625 11.3905 27.3507 10.8213 27.5495 10.287C27.7483 9.75263 28.0535 9.26423 28.4467 8.85138C28.8399 8.43853 29.3129 8.10984 29.8369 7.88525C30.361 7.66067 30.9252 7.54486 31.4953 7.54486C32.0655 7.54486 32.6297 7.66067 33.1537 7.88525C33.6777 8.10984 34.1507 8.43853 34.5439 8.85138C34.9371 9.26423 35.2423 9.75263 35.4411 10.287C35.6399 10.8213 35.7281 11.3905 35.7003 11.96C35.7009 12.6202 35.5442 13.2711 35.2434 13.8589C34.9426 14.4466 34.5062 14.9543 33.9703 15.34C33.6666 15.5702 33.3293 15.7523 32.9703 15.88C32.0229 16.2558 30.9678 16.2558 30.0203 15.88C29.6622 15.7502 29.3253 15.5682 29.0203 15.34C28.4862 14.9526 28.0511 14.4446 27.7505 13.8572C27.4499 13.2699 27.2922 12.6198 27.2903 11.96ZM37.2903 27.52H24.6103V21.13C24.6103 18.88 26.3803 16.96 28.8903 16.13C29.6709 16.6199 30.5737 16.8798 31.4953 16.8798C32.4169 16.8798 33.3198 16.6199 34.1003 16.13C36.6103 16.93 38.3803 18.85 38.3803 21.13V27.52H37.2903ZM56.6903 27.52H44.0103V21.13C44.0103 18.88 45.7903 16.96 48.2903 16.13C49.0744 16.616 49.9778 16.8755 50.9003 16.88C51.82 16.8774 52.7206 16.6176 53.5003 16.13C56.0103 16.93 57.7803 18.85 57.7803 21.13V27.52H56.6903Z" fill="black"></path><path d="M7.56 11.18H7.65998C7.74309 11.1821 7.8244 11.1553 7.89002 11.1043C7.95564 11.0532 8.00158 10.9811 8.02002 10.9C8.10767 10.5502 8.24218 10.2138 8.41999 9.90001C8.46663 9.81227 8.47708 9.70973 8.44904 9.6144C8.421 9.51907 8.35674 9.43852 8.27002 9.39C8.22688 9.36556 8.17921 9.35002 8.12995 9.34435C8.08068 9.33867 8.03079 9.34296 7.98322 9.35695C7.93564 9.37095 7.89138 9.39439 7.85303 9.42583C7.81468 9.45727 7.78306 9.49609 7.76001 9.54C7.55656 9.90953 7.39871 10.3024 7.28998 10.71C7.27493 10.7586 7.27009 10.8098 7.2757 10.8603C7.28131 10.9109 7.29724 10.9597 7.32258 11.0038C7.34791 11.0479 7.38207 11.0863 7.42292 11.1167C7.46377 11.147 7.51045 11.1685 7.56 11.18Z" fill="black"></path><path d="M46.3696 11.18H46.4596C46.5428 11.1821 46.624 11.1553 46.6896 11.1043C46.7552 11.0532 46.8012 10.9811 46.8196 10.9C46.9073 10.5502 47.0418 10.2138 47.2196 9.90001C47.2662 9.81227 47.2767 9.70973 47.2486 9.6144C47.2206 9.51907 47.1563 9.43852 47.0696 9.39C47.0265 9.36556 46.9789 9.35002 46.9296 9.34435C46.8803 9.33867 46.8304 9.34296 46.7828 9.35695C46.7352 9.37095 46.691 9.39439 46.6526 9.42583C46.6143 9.45727 46.5827 9.49609 46.5596 9.54C46.3551 9.90789 46.2004 10.3014 46.0996 10.71C46.0829 10.7586 46.0768 10.8101 46.0817 10.8612C46.0866 10.9123 46.1023 10.9618 46.1279 11.0063C46.1535 11.0508 46.1883 11.0893 46.23 11.1193C46.2717 11.1492 46.3193 11.17 46.3696 11.18Z" fill="black"></path><path d="M7.65986 35.89C7.74297 35.892 7.82428 35.8653 7.8899 35.8143C7.95552 35.7632 8.00145 35.691 8.0199 35.61C8.1061 35.2597 8.24069 34.9231 8.41987 34.61C8.45817 34.5235 8.46282 34.4258 8.43293 34.336C8.40304 34.2463 8.34076 34.1709 8.25825 34.1246C8.17573 34.0784 8.07893 34.0646 7.98676 34.0859C7.8946 34.1072 7.8137 34.1622 7.75989 34.24C7.55808 34.6103 7.4003 35.0029 7.28986 35.41C7.26544 35.5067 7.28011 35.6092 7.33063 35.6953C7.38115 35.7814 7.46349 35.8441 7.55988 35.87L7.65986 35.89Z" fill="black"></path><path d="M46.4605 35.89C46.5436 35.892 46.6248 35.8653 46.6904 35.8143C46.7561 35.7632 46.802 35.691 46.8204 35.61C46.9066 35.2597 47.0412 34.9231 47.2204 34.61C47.2587 34.5235 47.2634 34.4258 47.2335 34.336C47.2036 34.2463 47.1413 34.1709 47.0588 34.1246C46.9763 34.0784 46.8795 34.0646 46.7873 34.0859C46.6951 34.1072 46.6142 34.1622 46.5604 34.24C46.3576 34.6087 46.203 35.0019 46.1004 35.41C46.0854 35.4579 46.0806 35.5085 46.0863 35.5584C46.092 35.6083 46.1081 35.6565 46.1335 35.6998C46.1589 35.7431 46.1932 35.7806 46.234 35.81C46.2748 35.8393 46.3213 35.8597 46.3704 35.87L46.4605 35.89Z" fill="black"></path></g><defs><clipPath id="clip0_27_2329"><rect width="59.51" height="50.6" fill="white" transform="translate(2 7)"></rect></clipPath></defs></svg> 