<?xml version="1.0" encoding="UTF-8"?> <svg xmlns="http://www.w3.org/2000/svg" width="64" height="64" viewBox="0 0 64 64" fill="none"><g clip-path="url(#clip0_27_2339)"><path d="M38.7968 39.1242L40.4363 36.5702C40.4772 36.5054 40.4989 36.4307 40.4989 36.3545C40.4989 36.2782 40.4772 36.2035 40.4363 36.1387C40.3996 36.0704 40.3445 36.0133 40.277 35.9734C40.2096 35.9335 40.1323 35.9124 40.0535 35.9123H37.5472L37.995 31.6675C38.0079 31.5454 37.9788 31.4226 37.9124 31.3184C37.846 31.2143 37.7461 31.1349 37.6284 31.0927C37.5107 31.0505 37.382 31.0479 37.2626 31.0854C37.1433 31.1229 37.0401 31.1983 36.9694 31.2996L32.318 37.9569C32.2733 38.022 32.2476 38.0978 32.2437 38.1762C32.2398 38.2545 32.2577 38.3324 32.2956 38.4015C32.3334 38.4707 32.3898 38.5283 32.4587 38.5684C32.5275 38.6085 32.6062 38.6294 32.6863 38.629H35.2793L34.7737 43.4326C34.7597 43.5576 34.7892 43.6836 34.8574 43.7901C34.9255 43.8967 35.0284 43.9776 35.1493 44.0198C35.2117 44.0267 35.2747 44.0267 35.3371 44.0198C35.4328 44.0201 35.527 43.9961 35.6105 43.9503C35.694 43.9044 35.764 43.8382 35.8138 43.7581L38.7751 39.1383L38.7968 39.1242Z" fill="black"></path><path d="M53.0253 25.5409C52.9082 25.4976 52.7796 25.4943 52.6603 25.5316C52.541 25.5688 52.4381 25.6444 52.3681 25.746L47.7166 32.4103C47.6758 32.4765 47.6543 32.5524 47.6543 32.6297C47.6543 32.707 47.6758 32.7828 47.7166 32.849C47.7548 32.9181 47.811 32.9762 47.8795 33.0172C47.948 33.0582 48.0264 33.0807 48.1067 33.0824H50.7068L50.2012 37.8861C50.1863 38.0103 50.2155 38.1358 50.2839 38.2415C50.3523 38.3471 50.4557 38.4265 50.5768 38.4662C50.6971 38.5107 50.8295 38.5124 50.951 38.471C51.0724 38.4296 51.1752 38.3478 51.2413 38.2398L54.2026 33.613L55.8422 31.0662C55.8859 31.0012 55.9106 30.9257 55.9135 30.848C55.9164 30.7703 55.8974 30.6932 55.8587 30.6253C55.8199 30.5574 55.7628 30.5013 55.6937 30.463C55.6246 30.4247 55.546 30.4057 55.4666 30.4082H52.9676L53.4154 26.1634C53.439 26.0309 53.4124 25.8946 53.3406 25.7799C53.2687 25.6653 53.1566 25.5803 53.0253 25.5409Z" fill="black"></path><path d="M26.2001 16.9027C26.0818 16.8602 25.9524 16.8573 25.8322 16.8944C25.712 16.9316 25.6077 17.0066 25.5357 17.1079L20.8914 23.7722C20.8507 23.8384 20.8291 23.9142 20.8291 23.9915C20.8291 24.0688 20.8507 24.1446 20.8914 24.2108C20.929 24.2805 20.9851 24.3389 21.0537 24.38C21.1224 24.4211 21.201 24.4433 21.2815 24.4443H23.8816L23.376 29.248C23.3611 29.3722 23.3903 29.4977 23.4587 29.6033C23.5271 29.709 23.6305 29.7883 23.7516 29.8281C23.8116 29.8507 23.8752 29.8627 23.9394 29.8635C24.0348 29.8618 24.1282 29.837 24.2114 29.7913C24.2945 29.7456 24.3649 29.6805 24.4161 29.6017L27.3775 24.9749L29.017 22.428C29.0582 22.3626 29.0807 22.2876 29.0824 22.2108C29.0841 22.134 29.0648 22.0581 29.0265 21.991C28.9882 21.924 28.9323 21.8681 28.8646 21.8293C28.7969 21.7904 28.7199 21.77 28.6414 21.7701H26.1424L26.5902 17.5253C26.6138 17.3928 26.5872 17.2564 26.5154 17.1418C26.4435 17.0271 26.3314 16.9421 26.2001 16.9027Z" fill="black"></path><path d="M23.8743 39.4708H25.9978C26.2602 39.4708 26.5119 39.3687 26.6975 39.1869C26.883 39.0052 26.9873 38.7586 26.9873 38.5016C26.9873 38.2445 26.883 37.998 26.6975 37.8162C26.5119 37.6345 26.2602 37.5323 25.9978 37.5323H23.8743C23.6118 37.5323 23.3602 37.6345 23.1746 37.8162C22.989 37.998 22.8848 38.2445 22.8848 38.5016C22.8848 38.7586 22.989 39.0052 23.1746 39.1869C23.3602 39.3687 23.6118 39.4708 23.8743 39.4708Z" fill="black"></path><path d="M62.7255 41.4729C62.6904 41.4729 62.6557 41.4797 62.6233 41.4929C62.5909 41.506 62.5614 41.5253 62.5366 41.5496C62.5117 41.5739 62.4921 41.6028 62.4786 41.6345C62.4652 41.6663 62.4583 41.7003 62.4583 41.7347V48.7103C62.4583 48.9013 62.4198 49.0905 62.3449 49.2669C62.27 49.4433 62.1603 49.6035 62.0221 49.7383C61.8838 49.8731 61.7197 49.9798 61.5392 50.0522C61.3588 50.1247 61.1655 50.1615 60.9704 50.1606H43.0075V45.3357C43.0075 45.2644 42.9785 45.196 42.9271 45.1456C42.8756 45.0952 42.8058 45.0668 42.733 45.0668C42.6973 45.0668 42.6619 45.0738 42.629 45.0874C42.5961 45.101 42.5663 45.1209 42.5414 45.146C42.5165 45.1711 42.497 45.2008 42.484 45.2333C42.471 45.2659 42.4648 45.3007 42.4658 45.3357V50.4719C42.4639 50.7377 42.3552 50.9922 42.1633 51.1802C41.9713 51.3682 41.7116 51.4746 41.4401 51.4765H31.3572C31.0864 51.4746 30.8274 51.3679 30.6366 51.1797C30.4458 50.9915 30.3388 50.7371 30.3388 50.4719V34.1224C30.3369 34.0523 30.3071 33.9857 30.2559 33.9368C30.2046 33.8879 30.1359 33.8606 30.0643 33.8606C29.9934 33.8606 29.9254 33.8882 29.8753 33.9373C29.8252 33.9864 29.7971 34.053 29.7971 34.1224V35.1765H1.54171V24.89C1.53118 24.8271 1.49816 24.7698 1.44854 24.7286C1.39893 24.6873 1.33595 24.6646 1.27085 24.6646C1.20575 24.6646 1.14278 24.6873 1.09316 24.7286C1.04355 24.7698 1.01053 24.8271 1 24.89V39.7467C1.0019 40.2921 1.22395 40.8147 1.61771 41.2004C2.01146 41.5861 2.54497 41.8036 3.10182 41.8054H20.9637V48.0594H17.5401C17.4692 48.0594 17.4012 48.087 17.3511 48.1361C17.301 48.1852 17.2728 48.2517 17.2728 48.3212C17.2728 48.3913 17.3007 48.4586 17.3507 48.5088C17.4006 48.559 17.4685 48.5882 17.5401 48.59H29.7609V50.4506C29.7609 50.8566 29.9251 51.246 30.2175 51.5337C30.5098 51.8214 30.9066 51.984 31.3211 51.9858H41.4329C41.8088 51.9845 42.1717 51.8509 42.4555 51.6094C42.7392 51.3678 42.9249 51.0344 42.9786 50.67H60.9704C61.5074 50.67 62.0226 50.4615 62.403 50.0902C62.7834 49.7189 62.9981 49.2151 63 48.6891V41.7135C62.9928 41.6472 62.9608 41.5859 62.9101 41.5414C62.8593 41.497 62.7936 41.4726 62.7255 41.4729ZM28.367 48.0806H21.5054V41.8267H28.367V48.0806ZM29.7609 48.0806H28.9087V41.8267H29.7609V48.0806ZM29.7609 41.2961H3.10182C2.68805 41.2961 2.29123 41.1351 1.99865 40.8485C1.70607 40.5619 1.54171 40.1732 1.54171 39.7679V35.7071H29.7609V41.2961Z" fill="black"></path><path d="M60.9701 14.7662H48.872V14.0587C48.872 13.5127 48.6506 12.9891 48.2564 12.603C47.8623 12.2169 47.3276 12 46.7702 12H3.10153C2.54468 12.0019 2.01117 12.2194 1.61741 12.6051C1.22366 12.9907 1.00161 13.5133 0.999707 14.0587V17.1079C0.993272 17.1464 0.995449 17.1857 1.0061 17.2233C1.01675 17.2609 1.03561 17.2957 1.06138 17.3254C1.08715 17.3551 1.1192 17.379 1.15532 17.3953C1.19144 17.4117 1.23076 17.4202 1.27056 17.4202C1.31036 17.4202 1.34968 17.4117 1.3858 17.3953C1.42192 17.379 1.45397 17.3551 1.47974 17.3254C1.5055 17.2957 1.52436 17.2609 1.53501 17.2233C1.54566 17.1857 1.54785 17.1464 1.54141 17.1079V14.0446C1.54141 13.6393 1.70578 13.2506 1.99836 12.964C2.29093 12.6775 2.68776 12.5164 3.10153 12.5164H46.7702C47.184 12.5164 47.5808 12.6775 47.8734 12.964C48.166 13.2506 48.3303 13.6393 48.3303 14.0446V14.752H42.5955C42.0584 14.7539 41.5441 14.9642 41.165 15.3368C40.7859 15.7094 40.5731 16.214 40.5731 16.74V18.6006C40.5667 18.6391 40.5689 18.6785 40.5795 18.716C40.5901 18.7536 40.609 18.7884 40.6348 18.8182C40.6605 18.8479 40.6926 18.8717 40.7287 18.8881C40.7648 18.9045 40.8042 18.9129 40.8439 18.9129C40.8837 18.9129 40.9231 18.9045 40.9592 18.8881C40.9953 18.8717 41.0274 18.8479 41.0531 18.8182C41.0789 18.7884 41.0978 18.7536 41.1084 18.716C41.1191 18.6785 41.1212 18.6391 41.1148 18.6006V16.7542C41.1138 16.5631 41.1514 16.3738 41.2254 16.197C41.2994 16.0202 41.4083 15.8595 41.5459 15.7241C41.6835 15.5886 41.8471 15.4812 42.0272 15.4079C42.2073 15.3345 42.4004 15.2968 42.5955 15.2968H48.0631V15.8628C48.0685 15.9573 48.1103 16.0463 48.18 16.1119C48.2496 16.1775 48.342 16.2149 48.4387 16.2165H55.1341C55.2306 16.2165 55.3232 16.1795 55.3921 16.1133C55.461 16.0472 55.5006 15.9572 55.5025 15.8628V15.2968H60.9701C61.3647 15.2968 61.7432 15.4503 62.0222 15.7236C62.3012 15.997 62.458 16.3676 62.458 16.7542V39.7467C62.457 39.7817 62.4632 39.8165 62.4762 39.8491C62.4892 39.8817 62.5088 39.9113 62.5337 39.9364C62.5586 39.9615 62.5884 39.9814 62.6213 39.995C62.6542 40.0086 62.6895 40.0156 62.7252 40.0156C62.798 40.0156 62.8679 39.9872 62.9193 39.9368C62.9708 39.8864 62.9997 39.818 62.9997 39.7467V16.7542C62.9997 16.2269 62.7859 15.7213 62.4053 15.3484C62.0246 14.9756 61.5084 14.7662 60.9701 14.7662Z" fill="black"></path><path d="M41.1147 25.0739V23.659C41.1211 23.6205 41.1189 23.5811 41.1083 23.5436C41.0976 23.506 41.0787 23.4712 41.053 23.4415C41.0272 23.4118 40.9952 23.3879 40.959 23.3715C40.9229 23.3552 40.8836 23.3467 40.8438 23.3467C40.804 23.3467 40.7647 23.3552 40.7286 23.3715C40.6924 23.3879 40.6604 23.4118 40.6346 23.4415C40.6089 23.4712 40.59 23.506 40.5793 23.5436C40.5687 23.5811 40.5665 23.6205 40.5729 23.659V25.0739C40.5665 25.1124 40.5687 25.1518 40.5793 25.1893C40.59 25.2269 40.6089 25.2617 40.6346 25.2914C40.6604 25.3211 40.6924 25.345 40.7286 25.3614C40.7647 25.3777 40.804 25.3862 40.8438 25.3862C40.8836 25.3862 40.9229 25.3777 40.959 25.3614C40.9952 25.345 41.0272 25.3211 41.053 25.2914C41.0787 25.2617 41.0976 25.2269 41.1083 25.1893C41.1189 25.1518 41.1211 25.1124 41.1147 25.0739Z" fill="black"></path><path d="M53.3146 48.2433H50.2594C50.0719 48.2433 49.9199 48.3922 49.9199 48.5759V48.6254C49.9199 48.809 50.0719 48.9579 50.2594 48.9579H53.3146C53.5021 48.9579 53.6541 48.809 53.6541 48.6254V48.5759C53.6541 48.3922 53.5021 48.2433 53.3146 48.2433Z" fill="black"></path><path d="M29.7608 26.9134V28.2858C29.7599 28.3208 29.7661 28.3556 29.7791 28.3882C29.7921 28.4208 29.8116 28.4505 29.8365 28.4755C29.8614 28.5006 29.8912 28.5205 29.9241 28.5341C29.957 28.5477 29.9924 28.5547 30.0281 28.5547C30.1009 28.5547 30.1707 28.5263 30.2222 28.4759C30.2736 28.4255 30.3025 28.3571 30.3025 28.2858V26.9134C30.3025 26.6488 30.4098 26.3951 30.6008 26.208C30.7918 26.0209 31.0509 25.9158 31.321 25.9158H33.6322V26.2625C33.6359 26.3313 33.6665 26.3961 33.7176 26.4435C33.7686 26.4909 33.8363 26.5173 33.9067 26.5172H38.8398C38.9102 26.5173 38.9779 26.4909 39.029 26.4435C39.0801 26.3961 39.1106 26.3313 39.1143 26.2625V25.9158H41.4689C41.7397 25.9158 41.9995 26.0207 42.1916 26.2076C42.3837 26.3944 42.4926 26.6482 42.4945 26.9134V43.843C42.4935 43.8776 42.4998 43.9121 42.5129 43.9443C42.5259 43.9765 42.5456 44.0057 42.5706 44.0302C42.5956 44.0547 42.6255 44.074 42.6583 44.0868C42.6912 44.0996 42.7264 44.1057 42.7618 44.1047C42.7975 44.1057 42.833 44.0996 42.8663 44.0869C42.8995 44.0741 42.9298 44.055 42.9554 44.0306C42.981 44.0062 43.0014 43.977 43.0152 43.9448C43.0291 43.9126 43.0363 43.8779 43.0362 43.843V26.9134C43.0343 26.5074 42.8684 26.1188 42.5746 25.8324C42.2809 25.546 41.8833 25.3852 41.4689 25.3852H31.3571C31.1492 25.3805 30.9424 25.4166 30.7489 25.4912C30.5555 25.5659 30.3792 25.6777 30.2305 25.8201C30.0818 25.9625 29.9636 26.1325 29.883 26.3203C29.8023 26.508 29.7608 26.7097 29.7608 26.9134Z" fill="black"></path><path d="M29.7608 33.0471C29.7599 33.082 29.7661 33.1168 29.7791 33.1494C29.7921 33.182 29.8116 33.2117 29.8365 33.2367C29.8614 33.2618 29.8912 33.2817 29.9241 33.2953C29.957 33.3089 29.9924 33.3159 30.0281 33.3159C30.1009 33.3159 30.1707 33.2876 30.2222 33.2372C30.2736 33.1867 30.3025 33.1184 30.3025 33.0471V31.9646C30.3025 31.8933 30.2736 31.825 30.2222 31.7745C30.1707 31.7241 30.1009 31.6958 30.0281 31.6958C29.9924 31.6958 29.957 31.7028 29.9241 31.7164C29.8912 31.73 29.8614 31.7499 29.8365 31.775C29.8116 31.8 29.7921 31.8297 29.7791 31.8623C29.7661 31.8949 29.7599 31.9297 29.7608 31.9646V33.0471Z" fill="black"></path><path d="M37.6628 50.3021H35.1059C34.9503 50.3021 34.8242 50.4256 34.8242 50.578V50.6275C34.8242 50.7799 34.9503 50.9034 35.1059 50.9034H37.6628C37.8183 50.9034 37.9444 50.7799 37.9444 50.6275V50.578C37.9444 50.4256 37.8183 50.3021 37.6628 50.3021Z" fill="black"></path></g><defs><clipPath id="clip0_27_2339"><rect width="62" height="40" fill="white" transform="translate(1 12)"></rect></clipPath></defs></svg> 