<svg width="100" height="100" viewBox="0 0 100 100" fill="none" xmlns="http://www.w3.org/2000/svg">
<g clip-path="url(#clip0_309_94)">
<path d="M26.5042 62.0368C26.4368 62.0368 26.3701 62.0232 26.308 61.9969C26.246 61.9705 26.1898 61.932 26.1428 61.8834C26.0958 61.8348 26.059 61.7773 26.0344 61.7141C26.0099 61.651 25.9982 61.5836 26.0001 61.5158V58.541C25.9982 58.4732 26.0099 58.4057 26.0344 58.3426C26.059 58.2794 26.0958 58.222 26.1428 58.1734C26.1898 58.1248 26.246 58.0862 26.308 58.0598C26.3701 58.0335 26.4368 58.02 26.5042 58.02C26.6415 58.02 26.7731 58.0749 26.8702 58.1726C26.9673 58.2703 27.0219 58.4028 27.0219 58.541V61.5158C27.0219 61.654 26.9673 61.7865 26.8702 61.8841C26.7731 61.9818 26.6415 62.0368 26.5042 62.0368Z" fill="#002149"/>
<path d="M64.3401 86.0002H35.6327C33.0767 85.9966 30.6267 84.9724 28.8206 83.1525C27.0145 81.3327 26.0001 78.866 26.0001 76.2942V64.3125C25.9982 64.2447 26.0099 64.1773 26.0344 64.1141C26.059 64.051 26.0958 63.9934 26.1428 63.9449C26.1898 63.8963 26.246 63.8578 26.308 63.8314C26.3701 63.8051 26.4368 63.7915 26.5042 63.7915C26.6415 63.7915 26.7731 63.8464 26.8702 63.9441C26.9673 64.0418 27.0219 64.1743 27.0219 64.3125V76.2942C27.0255 78.5922 27.9334 80.7953 29.5471 82.4215C31.1608 84.0477 33.3488 84.9648 35.6327 84.972H64.3401C66.6263 84.9684 68.8179 84.053 70.4345 82.4263C72.0511 80.7997 72.9609 78.5946 72.9645 76.2942V73.2371C72.9524 73.1625 72.9566 73.0862 72.9766 73.0134C72.9967 72.9406 73.0323 72.8732 73.0809 72.8156C73.1295 72.758 73.19 72.7118 73.2581 72.6801C73.3262 72.6483 73.4004 72.6319 73.4755 72.6319C73.5505 72.6319 73.6248 72.6483 73.6929 72.6801C73.761 72.7118 73.8215 72.758 73.8701 72.8156C73.9187 72.8732 73.9542 72.9406 73.9743 73.0134C73.9944 73.0862 73.9985 73.1625 73.9864 73.2371V76.2942C73.9864 78.8684 72.9701 81.3372 71.1611 83.1574C69.352 84.9776 66.8985 86.0002 64.3401 86.0002Z" fill="#002149"/>
<path d="M53.4402 55.333C53.4432 54.6686 53.2564 54.0174 52.9022 53.4567C52.5479 52.896 52.041 52.4495 51.4419 52.1703C50.8427 51.8911 50.1765 51.7909 49.5224 51.8816C48.8683 51.9724 48.2538 52.2503 47.7521 52.6822C47.2504 53.1142 46.8826 53.682 46.6923 54.3182C46.5021 54.9544 46.4974 55.6323 46.679 56.2711C46.8605 56.9098 47.2205 57.4827 47.7163 57.9215C48.212 58.3604 48.8226 58.6467 49.4754 58.7465V73.4975C49.4754 73.6357 49.53 73.7681 49.6271 73.8658C49.7242 73.9635 49.8559 74.0185 49.9932 74.0185C50.1305 74.0185 50.2622 73.9635 50.3593 73.8658C50.4564 73.7681 50.5109 73.6357 50.5109 73.4975V58.7465C51.3258 58.6277 52.0707 58.2171 52.6089 57.59C53.147 56.9629 53.4422 56.1615 53.4402 55.333Z" fill="#002149"/>
<path d="M71.0707 42.7479H70.8254V33.9193C70.8218 28.6375 68.7349 23.573 65.0231 19.8382C61.3113 16.1034 56.278 14.0036 51.0287 14H50.2384C44.9903 14.0036 39.9585 16.1039 36.2488 19.8391C32.5391 23.5743 30.4553 28.6388 30.4553 33.9193V42.7479H28.9157C28.1424 42.7479 27.4008 43.057 26.854 43.6072C26.3072 44.1574 26 44.9036 26 45.6817V50.7952C26 50.9297 26.0531 51.0587 26.1476 51.1539C26.2422 51.249 26.3704 51.3024 26.5041 51.3024C26.6391 51.3024 26.7688 51.2495 26.8655 51.1547C26.9622 51.06 27.0183 50.9309 27.0219 50.7952V45.7502C27.0219 45.2449 27.2214 44.7601 27.5765 44.4028C27.9317 44.0454 28.4134 43.8447 28.9157 43.8447H71.0707C71.5729 43.8447 72.0546 44.0454 72.4098 44.4028C72.765 44.7601 72.9645 45.2449 72.9645 45.7502V69.8508C72.9843 69.9727 73.0466 70.0836 73.1402 70.1636C73.2338 70.2436 73.3526 70.2875 73.4754 70.2875C73.5982 70.2875 73.717 70.2436 73.8106 70.1636C73.9042 70.0836 73.9665 69.9727 73.9863 69.8508V45.6817C73.9863 44.9036 73.6792 44.1574 73.1324 43.6072C72.5856 43.057 71.844 42.7479 71.0707 42.7479ZM31.4771 33.9193C31.4807 28.9126 33.4581 24.1117 36.9754 20.5701C40.4926 17.0285 45.2625 15.0354 50.2384 15.0282H51.0287C56.007 15.0318 60.7803 17.0233 64.3005 20.5653C67.8207 24.1073 69.8 28.9102 69.8036 33.9193V42.7479H31.4771V33.9193Z" fill="#002149"/>
</g>
<defs>
<clipPath id="clip0_309_94">
<rect width="48" height="72" fill="white" transform="translate(26 14)"/>
</clipPath>
</defs>
</svg>
