<?xml version="1.0" encoding="UTF-8"?> <svg xmlns="http://www.w3.org/2000/svg" width="100" height="100" viewBox="0 0 100 100" fill="none"><g clip-path="url(#clip0_27_2905)"><path d="M11.4457 51.1982C11.565 51.1983 11.6796 51.1522 11.765 51.0698C11.8505 50.9873 11.9001 50.8752 11.9032 50.7571V48.0505C11.9139 47.9857 11.9103 47.9193 11.8925 47.856C11.8748 47.7927 11.8434 47.734 11.8004 47.6839C11.7575 47.6338 11.704 47.5936 11.6438 47.5661C11.5836 47.5385 11.518 47.5242 11.4517 47.5242C11.3853 47.5242 11.3198 47.5385 11.2596 47.5661C11.1993 47.5936 11.1459 47.6338 11.103 47.6839C11.06 47.734 11.0286 47.7927 11.0108 47.856C10.9931 47.9193 10.9894 47.9857 11.0002 48.0505V50.7571C11.0032 50.8731 11.0511 50.9836 11.134 51.0657C11.2169 51.1478 11.3285 51.1952 11.4457 51.1982Z" fill="black"></path><path d="M71.1675 62.3345C71.108 62.333 71.0487 62.3432 70.9933 62.3646C70.9378 62.3861 70.8873 62.4183 70.8446 62.4595C70.802 62.5006 70.7681 62.5498 70.745 62.6041C70.7218 62.6584 70.7099 62.7167 70.7099 62.7757V72.6004C70.7099 73.5269 70.3382 74.4155 69.6766 75.0707C69.015 75.7259 68.1176 76.0939 67.182 76.0939H15.4067C14.4711 76.0939 13.5737 75.7259 12.9121 75.0707C12.2505 74.4155 11.8788 73.5269 11.8788 72.6004V53.3564C11.8895 53.2916 11.8859 53.2252 11.8681 53.1619C11.8504 53.0986 11.8189 53.0399 11.776 52.9898C11.733 52.9397 11.6796 52.8995 11.6194 52.872C11.5592 52.8444 11.4936 52.8301 11.4273 52.8301C11.3609 52.8301 11.2954 52.8444 11.2352 52.872C11.1749 52.8995 11.1215 52.9397 11.0786 52.9898C11.0356 53.0399 11.0042 53.0986 10.9864 53.1619C10.9687 53.2252 10.965 53.2916 10.9757 53.3564V72.6481C10.9757 73.8118 11.4426 74.9278 12.2736 75.7507C13.1045 76.5735 14.2316 77.0358 15.4067 77.0358H67.182C68.3571 77.0358 69.4842 76.5735 70.3152 75.7507C71.1462 74.9278 71.613 73.8118 71.613 72.6481V62.7757C71.6147 62.7173 71.6043 62.6592 71.5825 62.605C71.5607 62.5507 71.5279 62.5014 71.4862 62.4601C71.4445 62.4188 71.3947 62.3864 71.3399 62.3648C71.2851 62.3432 71.2264 62.3329 71.1675 62.3345Z" fill="black"></path><path d="M67.1818 34.2793H15.4066C14.2314 34.2793 13.1044 34.7416 12.2734 35.5644C11.4424 36.3873 10.9756 37.5033 10.9756 38.667V41.469C10.9931 41.575 11.0482 41.6714 11.1309 41.741C11.2136 41.8106 11.3186 41.8488 11.4271 41.8488C11.5356 41.8488 11.6406 41.8106 11.7234 41.741C11.8061 41.6714 11.8611 41.575 11.8786 41.469V38.667C11.8786 37.7405 12.2503 36.8519 12.912 36.1968C13.5736 35.5416 14.4709 35.1735 15.4066 35.1735H67.1818C68.1175 35.1735 69.0148 35.5416 69.6765 36.1968C70.3381 36.8519 70.7098 37.7405 70.7098 38.667V59.3179C70.7098 59.4381 70.758 59.5534 70.8438 59.6383C70.9296 59.7233 71.046 59.771 71.1673 59.771C71.2269 59.771 71.2858 59.7593 71.3406 59.7363C71.3955 59.7134 71.4452 59.6799 71.4867 59.6376C71.5282 59.5954 71.5608 59.5453 71.5825 59.4904C71.6041 59.4355 71.6144 59.3769 71.6128 59.3179V38.7028C71.6176 38.1236 71.5065 37.5492 71.2859 37.0127C71.0654 36.4762 70.7398 35.9883 70.3279 35.5771C69.9159 35.1658 69.4258 34.8394 68.8859 34.6167C68.3459 34.3939 67.7668 34.2793 67.1818 34.2793Z" fill="black"></path><path d="M84.5685 23H32.7933C31.6181 23 30.4911 23.4623 29.6601 24.2851C28.8291 25.108 28.3623 26.224 28.3623 27.3877V29.7723C28.3623 29.8905 28.4088 30.0039 28.4921 30.0886C28.5753 30.1732 28.6886 30.2223 28.8078 30.2254L88.0724 30.297V36.6639H75.538C75.4198 36.6639 75.3065 36.7104 75.2229 36.7931C75.1394 36.8759 75.0925 36.9881 75.0925 37.1051C75.0924 37.2232 75.139 37.3367 75.2222 37.4213C75.3054 37.506 75.4187 37.5551 75.538 37.5582H88.0965V47.8836C88.0965 47.9426 88.1084 48.001 88.1315 48.0553C88.1547 48.1096 88.1886 48.1587 88.2312 48.1999C88.2739 48.241 88.3244 48.2732 88.3798 48.2947C88.4353 48.3161 88.4945 48.3264 88.554 48.3248C88.613 48.3264 88.6717 48.3161 88.7265 48.2945C88.7813 48.273 88.831 48.2405 88.8727 48.1992C88.9145 48.158 88.9472 48.1087 88.969 48.0544C88.9908 48.0001 89.0012 47.942 88.9996 47.8836V27.3877C88.9996 26.224 88.5327 25.108 87.7017 24.2851C86.8708 23.4623 85.7437 23 84.5685 23ZM29.2895 29.367V27.3877C29.2895 26.4612 29.6611 25.5726 30.3227 24.9174C30.9844 24.2623 31.8817 23.8942 32.8174 23.8942H84.5926C85.5283 23.8942 86.4256 24.2623 87.0872 24.9174C87.7489 25.5726 88.1206 26.4612 88.1206 27.3877V29.4385L29.2895 29.367Z" fill="black"></path><path d="M88.5547 50.9717C88.4354 50.9716 88.3209 51.0177 88.2354 51.1001C88.1499 51.1825 88.1004 51.2947 88.0972 51.4128V61.3091C88.0972 62.2356 87.7255 63.1242 87.0639 63.7793C86.4023 64.4345 85.5049 64.8025 84.5692 64.8025H75.5989C75.5334 64.7919 75.4664 64.7956 75.4025 64.8131C75.3385 64.8307 75.2793 64.8618 75.2287 64.9043C75.1781 64.9469 75.1375 64.9998 75.1096 65.0594C75.0818 65.119 75.0674 65.1839 75.0674 65.2496C75.0674 65.3153 75.0818 65.3802 75.1096 65.4399C75.1375 65.4995 75.1781 65.5524 75.2287 65.5949C75.2793 65.6375 75.3385 65.6686 75.4025 65.6862C75.4664 65.7038 75.5334 65.7074 75.5989 65.6968H84.5692C85.7444 65.6968 86.8715 65.2345 87.7025 64.4117C88.5334 63.5888 89.0003 62.4728 89.0003 61.3091V51.4128C89.0003 51.2958 88.9533 51.1836 88.8698 51.1009C88.7862 51.0182 88.6729 50.9717 88.5547 50.9717Z" fill="black"></path><path d="M58.6933 41.7194C57.6264 41.7225 56.5839 42.0361 55.6954 42.6212C54.807 43.2063 54.1119 44.037 53.6964 45.0102C53.2088 43.8671 52.337 42.9263 51.2288 42.3471C50.1206 41.7679 48.8442 41.586 47.616 41.8323C46.3879 42.0787 45.2835 42.738 44.4903 43.6986C43.697 44.6592 43.2637 45.8618 43.2637 47.1027C43.2637 48.3435 43.697 49.5462 44.4903 50.5068C45.2835 51.4673 46.3879 52.1267 47.616 52.373C48.8442 52.6193 50.1206 52.4375 51.2288 51.8583C52.337 51.2791 53.2088 50.3383 53.6964 49.1952C54.0795 50.0902 54.7004 50.8655 55.493 51.4389C56.2857 52.0123 57.2204 52.3622 58.1979 52.4514C59.1754 52.5406 60.159 52.3658 61.0441 51.9455C61.9292 51.5252 62.6828 50.8752 63.2245 50.0647C63.7663 49.2541 64.0761 48.3133 64.121 47.3423C64.1658 46.3712 63.944 45.4064 63.4791 44.5502C63.0143 43.6941 62.3238 42.9788 61.481 42.4803C60.6383 41.9818 59.6749 41.7188 58.6933 41.7194Z" fill="black"></path><path d="M21.885 56.4564H26.1113C27.0693 56.4564 27.9881 56.0796 28.6655 55.4087C29.343 54.7379 29.7236 53.8281 29.7236 52.8795V51.4248C29.7236 50.4762 29.343 49.5664 28.6655 48.8955C27.9881 48.2247 27.0693 47.8479 26.1113 47.8479H21.9452C20.9872 47.8479 20.0684 48.2247 19.391 48.8955C18.7136 49.5664 18.333 50.4762 18.333 51.4248V52.8795C18.3329 53.8179 18.7052 54.7188 19.3696 55.3879C20.0341 56.057 20.9375 56.4408 21.885 56.4564ZM28.7362 51.4368V52.8914C28.7378 53.2415 28.6695 53.5886 28.5353 53.9126C28.401 54.2365 28.2035 54.5311 27.954 54.7792C27.7045 55.0274 27.408 55.2243 27.0814 55.3586C26.7549 55.493 26.4048 55.5622 26.0511 55.5622H24.3293V48.766H26.1113C26.8141 48.7846 27.4816 49.0742 27.9719 49.5731C28.4622 50.072 28.7365 50.7407 28.7362 51.4368ZM19.1999 51.4368C19.1999 50.7305 19.4824 50.053 19.9856 49.5524C20.4888 49.0519 21.1718 48.7691 21.885 48.766H23.4262V55.5622H21.885C21.5314 55.5622 21.1813 55.493 20.8547 55.3586C20.5281 55.2243 20.2316 55.0274 19.9821 54.7792C19.7326 54.5311 19.5351 54.2365 19.4009 53.9126C19.2666 53.5886 19.1984 53.2415 19.1999 52.8914V51.4368Z" fill="black"></path><path d="M18.742 62.3226H26.3638C26.4709 62.3052 26.5682 62.2507 26.6385 62.1688C26.7088 62.0869 26.7474 61.9829 26.7474 61.8755C26.7474 61.768 26.7088 61.6641 26.6385 61.5822C26.5682 61.5002 26.4709 61.4457 26.3638 61.4283H18.742C18.6349 61.4457 18.5375 61.5002 18.4672 61.5822C18.397 61.6641 18.3584 61.768 18.3584 61.8755C18.3584 61.9829 18.397 62.0869 18.4672 62.1688C18.5375 62.2507 18.6349 62.3052 18.742 62.3226Z" fill="black"></path><path d="M38.8745 62.3226C38.94 62.3332 39.007 62.3296 39.0709 62.312C39.1348 62.2944 39.1942 62.2633 39.2447 62.2207C39.2953 62.1782 39.3359 62.1253 39.3637 62.0657C39.3916 62.006 39.406 61.9411 39.406 61.8754C39.406 61.8097 39.3916 61.7448 39.3637 61.6852C39.3359 61.6256 39.2953 61.5727 39.2447 61.5301C39.1942 61.4876 39.1348 61.4565 39.0709 61.4389C39.007 61.4213 38.94 61.4177 38.8745 61.4283H31.2527C31.1456 61.4457 31.0482 61.5002 30.978 61.5821C30.9077 61.664 30.8691 61.768 30.8691 61.8754C30.8691 61.9829 30.9077 62.0869 30.978 62.1688C31.0482 62.2507 31.1456 62.3052 31.2527 62.3226H38.8745Z" fill="black"></path><path d="M43.7272 62.3226H51.3971C51.4626 62.3332 51.5296 62.3296 51.5936 62.312C51.6575 62.2944 51.7168 62.2633 51.7674 62.2207C51.8179 62.1782 51.8585 62.1253 51.8864 62.0657C51.9142 62.006 51.9287 61.9411 51.9287 61.8754C51.9287 61.8097 51.9142 61.7448 51.8864 61.6852C51.8585 61.6256 51.8179 61.5727 51.7674 61.5301C51.7168 61.4876 51.6575 61.4565 51.5936 61.4389C51.5296 61.4213 51.4626 61.4177 51.3971 61.4283H43.7874C43.7219 61.4177 43.6549 61.4213 43.591 61.4389C43.5271 61.4565 43.4677 61.4876 43.4172 61.5301C43.3666 61.5727 43.326 61.6256 43.2982 61.6852C43.2703 61.7448 43.2559 61.8097 43.2559 61.8754C43.2559 61.9411 43.2703 62.006 43.2982 62.0657C43.326 62.1253 43.3666 62.1782 43.4172 62.2207C43.4677 62.2633 43.5271 62.2944 43.591 62.312C43.6549 62.3296 43.7219 62.3332 43.7874 62.3226H43.7272Z" fill="black"></path><path d="M55.8761 61.8814C55.8761 61.9984 55.9231 62.1106 56.0066 62.1934C56.0902 62.2761 56.2035 62.3226 56.3216 62.3226H63.9435C64.0506 62.3052 64.1479 62.2507 64.2182 62.1688C64.2884 62.0869 64.327 61.9829 64.327 61.8755C64.327 61.768 64.2884 61.6641 64.2182 61.5822C64.1479 61.5002 64.0506 61.4457 63.9435 61.4283H56.3216C56.2621 61.4283 56.2032 61.4401 56.1483 61.4631C56.0935 61.486 56.0438 61.5195 56.0023 61.5618C55.9608 61.604 55.9282 61.6541 55.9065 61.709C55.8849 61.7639 55.8745 61.8225 55.8761 61.8814Z" fill="black"></path><path d="M18.7425 68.4749H43.7271C43.7861 68.4766 43.8448 68.4663 43.8996 68.4447C43.9544 68.4231 44.0041 68.3907 44.0458 68.3494C44.0876 68.3081 44.1203 68.2588 44.1421 68.2045C44.1639 68.1502 44.1743 68.0922 44.1726 68.0338C44.1742 67.9748 44.1639 67.9162 44.1422 67.8613C44.1206 67.8064 44.088 67.7563 44.0465 67.7141C44.0049 67.6718 43.9553 67.6383 43.9004 67.6154C43.8456 67.5925 43.7866 67.5807 43.7271 67.5807H18.7425C18.683 67.5807 18.6241 67.5925 18.5692 67.6154C18.5144 67.6383 18.4647 67.6718 18.4232 67.7141C18.3817 67.7563 18.3491 67.8064 18.3274 67.8613C18.3058 67.9162 18.2954 67.9748 18.297 68.0338C18.2954 68.0922 18.3057 68.1502 18.3275 68.2045C18.3493 68.2588 18.3821 68.3081 18.4238 68.3494C18.4655 68.3907 18.5153 68.4231 18.5701 68.4447C18.6249 68.4663 18.6836 68.4766 18.7425 68.4749Z" fill="black"></path></g><defs><clipPath id="clip0_27_2905"><rect width="78" height="54" fill="white" transform="translate(11 23)"></rect></clipPath></defs></svg> 