<?xml version="1.0" encoding="UTF-8"?> <svg xmlns="http://www.w3.org/2000/svg" width="100" height="100" viewBox="0 0 100 100" fill="none"><g clip-path="url(#clip0_27_2921)"><path d="M26.5043 62.0365C26.4369 62.0366 26.3702 62.023 26.3082 61.9966C26.2461 61.9703 26.1899 61.9317 26.1429 61.8832C26.0959 61.8346 26.0591 61.777 26.0346 61.7139C26.0101 61.6507 25.9984 61.5833 26.0002 61.5156V58.5407C25.9984 58.473 26.0101 58.4055 26.0346 58.3423C26.0591 58.2792 26.0959 58.2217 26.1429 58.1731C26.1899 58.1246 26.2461 58.0859 26.3082 58.0596C26.3702 58.0333 26.4369 58.0198 26.5043 58.0198C26.6416 58.0198 26.7733 58.0746 26.8704 58.1723C26.9675 58.27 27.022 58.4026 27.022 58.5407V61.5156C27.022 61.6537 26.9675 61.7862 26.8704 61.8839C26.7733 61.9816 26.6416 62.0365 26.5043 62.0365Z" fill="black"></path><path d="M64.3402 86H35.6329C33.0768 85.9963 30.6268 84.9721 28.8207 83.1523C27.0146 81.3325 26.0002 78.8657 26.0002 76.2939V64.3122C25.9984 64.2445 26.0101 64.177 26.0346 64.1139C26.0591 64.0508 26.0959 63.9932 26.1429 63.9446C26.1899 63.8961 26.2461 63.8575 26.3082 63.8312C26.3702 63.8048 26.4369 63.7912 26.5043 63.7913C26.6416 63.7913 26.7733 63.8462 26.8704 63.9439C26.9675 64.0416 27.022 64.174 27.022 64.3122V76.2939C27.0256 78.5919 27.9335 80.795 29.5472 82.4212C31.1609 84.0475 33.349 84.9645 35.6329 84.9718H64.3402C66.6265 84.9682 68.818 84.0527 70.4346 82.4261C72.0513 80.7995 72.9611 78.5943 72.9647 76.2939V73.2368C72.9525 73.1623 72.9567 73.0859 72.9768 73.0132C72.9968 72.9404 73.0324 72.8729 73.081 72.8154C73.1296 72.7578 73.1901 72.7115 73.2582 72.6798C73.3263 72.6481 73.4005 72.6317 73.4756 72.6317C73.5507 72.6317 73.6249 72.6481 73.693 72.6798C73.7611 72.7115 73.8216 72.7578 73.8702 72.8154C73.9188 72.8729 73.9544 72.9404 73.9745 73.0132C73.9945 73.0859 73.9987 73.1623 73.9865 73.2368V76.2939C73.9865 78.8681 72.9702 81.3369 71.1612 83.1572C69.3522 84.9774 66.8986 86 64.3402 86Z" fill="black"></path><path d="M53.44 55.3327C53.4429 54.6684 53.2562 54.0171 52.9019 53.4565C52.5477 52.8958 52.0408 52.4493 51.4416 52.1701C50.8425 51.8908 50.1762 51.7906 49.5221 51.8814C48.868 51.9721 48.2536 52.25 47.7519 52.682C47.2502 53.1139 46.8823 53.6817 46.6921 54.318C46.5018 54.9542 46.4972 55.632 46.6787 56.2708C46.8602 56.9096 47.2203 57.4824 47.716 57.9213C48.2118 58.3601 48.8224 58.6465 49.4752 58.7463V73.4973C49.4752 73.6354 49.5297 73.7679 49.6268 73.8656C49.7239 73.9633 49.8556 74.0182 49.9929 74.0182C50.1302 74.0182 50.2619 73.9633 50.359 73.8656C50.4561 73.7679 50.5107 73.6354 50.5107 73.4973V58.7463C51.3256 58.6275 52.0705 58.2168 52.6086 57.5898C53.1467 56.9627 53.4419 56.1612 53.44 55.3327Z" fill="black"></path><path d="M71.0707 42.7479H70.8254V33.9193C70.8218 28.6375 68.7349 23.573 65.0231 19.8382C61.3113 16.1034 56.278 14.0036 51.0287 14H50.2384C44.9903 14.0036 39.9585 16.1039 36.2488 19.8391C32.5391 23.5743 30.4553 28.6388 30.4553 33.9193V42.7479H28.9157C28.1424 42.7479 27.4008 43.057 26.854 43.6072C26.3072 44.1574 26 44.9036 26 45.6817V50.7952C26 50.9297 26.0531 51.0587 26.1476 51.1539C26.2422 51.249 26.3704 51.3024 26.5041 51.3024C26.6391 51.3024 26.7688 51.2495 26.8655 51.1547C26.9622 51.06 27.0183 50.9309 27.0219 50.7952V45.7502C27.0219 45.2449 27.2214 44.7601 27.5765 44.4028C27.9317 44.0454 28.4134 43.8447 28.9157 43.8447H71.0707C71.5729 43.8447 72.0546 44.0454 72.4098 44.4028C72.765 44.7601 72.9645 45.2449 72.9645 45.7502V69.8508C72.9843 69.9727 73.0466 70.0836 73.1402 70.1636C73.2338 70.2436 73.3526 70.2875 73.4754 70.2875C73.5982 70.2875 73.717 70.2436 73.8106 70.1636C73.9042 70.0836 73.9665 69.9727 73.9863 69.8508V45.6817C73.9863 44.9036 73.6792 44.1574 73.1324 43.6072C72.5856 43.057 71.844 42.7479 71.0707 42.7479ZM31.4771 33.9193C31.4807 28.9126 33.4581 24.1117 36.9754 20.5701C40.4926 17.0285 45.2625 15.0354 50.2384 15.0282H51.0287C56.007 15.0318 60.7803 17.0233 64.3005 20.5653C67.8207 24.1073 69.8 28.9102 69.8036 33.9193V42.7479H31.4771V33.9193Z" fill="black"></path></g><defs><clipPath id="clip0_27_2921"><rect width="48" height="72" fill="white" transform="translate(26 14)"></rect></clipPath></defs></svg> 