<?xml version="1.0" encoding="UTF-8"?> <svg xmlns="http://www.w3.org/2000/svg" width="100" height="100" viewBox="0 0 100 100" fill="none"><g clip-path="url(#clip0_27_2896)"><path d="M24.6926 45.0639C24.5794 45.0335 24.4588 45.0472 24.3553 45.1023C24.2518 45.1574 24.173 45.2497 24.1349 45.3606C22.2712 51.3782 22.8079 57.8834 25.6327 63.5143C28.4574 69.1452 33.3513 73.4653 39.2897 75.5702H39.4321C39.5248 75.5693 39.6151 75.5405 39.6913 75.4876C39.7675 75.4347 39.826 75.3601 39.8593 75.2736C39.8975 75.1618 39.8903 75.0395 39.8392 74.933C39.7882 74.8265 39.6974 74.7443 39.5864 74.7041C33.864 72.6774 29.1482 68.5151 26.427 63.0893C23.7059 57.6634 23.1907 51.3951 24.9893 45.5979C25.0159 45.4879 25.0002 45.372 24.9452 45.273C24.8902 45.1741 24.8001 45.0995 24.6926 45.0639Z" fill="black"></path><path d="M25.6186 42.7146C25.6808 42.7307 25.7462 42.7307 25.8084 42.7146C25.8922 42.7146 25.9743 42.6913 26.0456 42.6473C26.1168 42.6033 26.1745 42.5403 26.2119 42.4654C26.5086 41.8484 26.8291 41.2789 27.1851 40.6381C27.2249 40.5875 27.2533 40.5289 27.2685 40.4663C27.2838 40.4037 27.2854 40.3386 27.2734 40.2754C27.2613 40.2121 27.2359 40.1522 27.1987 40.0996C27.1616 40.047 27.1136 40.0029 27.058 39.9704C27.0024 39.9379 26.9404 39.9177 26.8764 39.9112C26.8123 39.9046 26.7476 39.9118 26.6865 39.9324C26.6255 39.9529 26.5695 39.9863 26.5225 40.0302C26.4754 40.0742 26.4383 40.1277 26.4137 40.1872C26.0577 40.8042 25.7135 41.3738 25.405 42.0739C25.3709 42.1286 25.3494 42.1902 25.3419 42.2543C25.3343 42.3183 25.341 42.3832 25.3614 42.4444C25.3818 42.5055 25.4154 42.5614 25.4599 42.6081C25.5043 42.6549 25.5585 42.6912 25.6186 42.7146Z" fill="black"></path><path d="M28.0273 26.3876C28.1202 26.3836 28.2103 26.3549 28.2884 26.3045C28.6919 26.0079 29.1073 25.7113 29.4752 25.4384C29.556 25.3667 29.6085 25.2684 29.6229 25.1613C29.6374 25.0542 29.613 24.9455 29.554 24.855C29.4951 24.7644 29.4056 24.698 29.3018 24.6679C29.1981 24.6378 29.0869 24.6459 28.9886 24.6908C28.5535 24.9756 28.1262 25.2722 27.7069 25.5807C27.6586 25.6137 27.6175 25.6563 27.5863 25.7059C27.555 25.7554 27.5344 25.8108 27.5255 25.8686C27.5166 25.9265 27.5197 25.9856 27.5345 26.0422C27.5494 26.0988 27.5758 26.1517 27.612 26.1977C27.6571 26.2644 27.7198 26.3174 27.793 26.3509C27.8663 26.3844 27.9473 26.3971 28.0273 26.3876Z" fill="black"></path><path d="M72.0679 73.7785C69.2003 77.1406 65.6774 79.8831 61.7143 81.8384C57.7512 83.7937 53.431 84.9206 49.0176 85.1506C44.6043 85.3805 40.1904 84.7086 36.0455 83.1758C31.9005 81.643 28.1116 79.2815 24.9101 76.2356C21.7085 73.1896 19.1616 69.5232 17.4248 65.4601C15.688 61.397 14.7978 57.0225 14.8086 52.6039C14.8194 48.1853 15.7309 43.8152 17.4875 39.7606C19.244 35.7061 21.8088 32.052 25.0252 29.0217C25.0996 28.9373 25.1399 28.8281 25.1379 28.7156C25.136 28.6031 25.0921 28.4954 25.0147 28.4136C24.9374 28.3318 24.8323 28.2819 24.72 28.2737C24.6077 28.2654 24.4965 28.2995 24.408 28.3691C21.1044 31.4785 18.4756 35.2339 16.6852 39.4021C14.8947 43.5703 13.9809 48.0622 14.0003 52.5985C14.0019 59.419 16.0918 66.0755 19.9891 71.6733C23.8864 77.271 29.4041 81.5418 35.8008 83.9114C42.1975 86.281 49.1664 86.6359 55.7707 84.9284C62.3751 83.2209 68.2984 79.5328 72.7443 74.3599C72.8262 74.2757 72.872 74.1629 72.872 74.0454C72.872 73.928 72.8262 73.8152 72.7443 73.731C72.6997 73.684 72.6452 73.6474 72.5848 73.6238C72.5244 73.6003 72.4595 73.5906 72.3948 73.5951C72.3302 73.5996 72.2673 73.6184 72.2108 73.6501C72.1542 73.6818 72.1055 73.7257 72.0679 73.7785Z" fill="black"></path><path d="M77.491 29.8998C77.811 29.9033 78.1283 29.842 78.424 29.7197C78.7198 29.5973 78.9877 29.4165 79.2117 29.1879L85.632 22.7687C85.8051 22.6049 85.9248 22.3927 85.9756 22.1599C86.0264 21.9271 86.0059 21.6844 85.9168 21.4635C85.8407 21.2371 85.698 21.039 85.5075 20.8951C85.3169 20.7511 85.0873 20.668 84.8487 20.6566L80.3391 20.3006L83.757 16.8833C83.8362 16.7978 83.8802 16.6855 83.8802 16.5689C83.8802 16.4523 83.8362 16.34 83.757 16.2545C83.716 16.2125 83.6671 16.1792 83.6131 16.1564C83.5591 16.1336 83.5011 16.1218 83.4424 16.1218C83.3838 16.1218 83.3258 16.1336 83.2718 16.1564C83.2178 16.1792 83.1689 16.2125 83.128 16.2545L79.7221 19.7192L79.366 15.2103C79.3546 14.9718 79.2714 14.7423 79.1274 14.5517C78.9835 14.3612 78.7854 14.2185 78.559 14.1424C78.338 14.0533 78.0952 14.0329 77.8624 14.0837C77.6296 14.1345 77.4174 14.2542 77.2536 14.4272L70.8332 20.8465C70.5927 21.0814 70.4049 21.3647 70.2821 21.6776C70.1594 21.9906 70.1045 22.3261 70.1212 22.6619L70.3586 28.4285C65.1147 23.4464 58.3927 20.3043 51.2065 19.476C44.0203 18.6477 36.7596 20.1781 30.5195 23.8366C30.4683 23.8649 30.4234 23.9032 30.3873 23.9492C30.3511 23.9951 30.3246 24.0478 30.3091 24.1042C30.2936 24.1606 30.2896 24.2194 30.2972 24.2774C30.3047 24.3353 30.3238 24.3912 30.3533 24.4417C30.4151 24.5434 30.5137 24.6174 30.6286 24.6483C30.7435 24.6793 30.8659 24.6648 30.9704 24.6078C37.1053 21.0037 44.255 19.5159 51.3186 20.3735C58.3822 21.2311 64.9681 24.3866 70.0619 29.354L64.2825 35.1444C61.8445 32.7876 58.94 30.9672 55.7559 29.8005C52.5718 28.6337 49.1787 28.1464 45.7949 28.37C42.4111 28.5935 39.1116 29.5229 36.1087 31.0984C33.1058 32.6738 30.4662 34.8605 28.3596 37.5175C28.3229 37.5627 28.2956 37.6147 28.279 37.6704C28.2625 37.7262 28.2571 37.7847 28.2632 37.8425C28.2692 37.9003 28.2866 37.9564 28.3144 38.0075C28.3421 38.0587 28.3796 38.1038 28.4248 38.1404C28.47 38.1771 28.522 38.2044 28.5777 38.221C28.6335 38.2375 28.6921 38.2429 28.7499 38.2368C28.8078 38.2308 28.8639 38.2134 28.915 38.1856C28.9661 38.1579 29.0113 38.1204 29.0479 38.0752C31.0764 35.5078 33.6207 33.394 36.5166 31.8703C39.4125 30.3466 42.5956 29.4466 45.8608 29.2286C49.1259 29.0106 52.4005 29.4793 55.4733 30.6046C58.5461 31.7298 61.349 33.4865 63.701 35.7614L57.9214 41.5281C55.7943 39.5285 53.1386 38.1805 50.2688 37.6435C47.3991 37.1066 44.4356 37.4032 41.7292 38.4984C39.0229 39.5936 36.6872 41.4414 34.9989 43.8229C33.3105 46.2044 32.3402 49.0198 32.2029 51.9357C32.0656 54.8515 32.767 57.7456 34.2241 60.2752C35.6812 62.8048 37.8329 64.8638 40.4244 66.2084C43.0158 67.553 45.9384 68.1268 48.8459 67.8618C51.7534 67.5968 54.524 66.5041 56.8296 64.7133C56.8775 64.6782 56.9177 64.6339 56.9479 64.5829C56.9781 64.5319 56.9977 64.4753 57.0055 64.4166C57.0133 64.3578 57.0091 64.2981 56.9931 64.241C56.9772 64.1839 56.9498 64.1307 56.9127 64.0844C56.84 63.9905 56.7331 63.9291 56.6153 63.9136C56.4975 63.898 56.3784 63.9296 56.2838 64.0014C53.7625 65.9798 50.6475 67.05 47.4425 67.0389C45.0932 67.0388 42.7795 66.4643 40.7031 65.3653C38.6267 64.2664 36.8506 62.6765 35.5295 60.7341C34.2085 58.7917 33.3826 56.5558 33.1238 54.2211C32.865 51.8865 33.1811 49.524 34.0446 47.3394C34.9082 45.1549 36.2929 43.2147 38.0782 41.6878C39.8635 40.1609 41.9952 39.0938 44.2874 38.5792C46.5797 38.0647 48.9631 38.1185 51.2298 38.7359C53.4966 39.3533 55.5779 40.5155 57.2925 42.1213L51.5486 47.8761C50.3065 46.7972 48.6941 46.2425 47.051 46.329C45.4079 46.4154 43.8625 47.1363 42.7406 48.3396C41.6186 49.5429 41.0077 51.1347 41.0365 52.7795C41.0653 54.4244 41.7317 55.9938 42.8951 57.157C44.0586 58.3203 45.6283 58.9865 47.2734 59.0154C48.9185 59.0442 50.5105 58.4333 51.714 57.3116C52.9175 56.1898 53.6385 54.6447 53.725 53.0019C53.8115 51.3591 53.2567 49.7469 52.1776 48.505L57.9214 42.7502C60.4614 45.4318 61.8691 48.9896 61.8514 52.6829C61.8337 56.3761 60.3921 59.9203 57.8265 62.5775C57.7569 62.6659 57.7228 62.7772 57.7311 62.8894C57.7393 63.0016 57.7892 63.1068 57.871 63.1841C57.9528 63.2614 58.0605 63.3053 58.1731 63.3073C58.2856 63.3092 58.3948 63.269 58.4792 63.1945C61.1992 60.3651 62.7242 56.5966 62.7374 52.6722C62.7507 48.7478 61.2512 44.9691 58.5504 42.1213L64.3299 36.3547C67.5351 39.6696 69.6905 43.8566 70.526 48.391C71.3615 52.9255 70.8399 57.6056 69.0265 61.8449C67.2132 66.0842 64.1888 69.6941 60.3324 72.2222C56.4759 74.7503 51.9589 76.0842 47.3475 76.0567C46.0395 76.0571 44.7336 75.95 43.4432 75.7364C43.3855 75.727 43.3265 75.7291 43.2697 75.7425C43.2128 75.756 43.1592 75.7804 43.1118 75.8146C43.0644 75.8488 43.0242 75.8919 42.9935 75.9416C42.9628 75.9913 42.9422 76.0466 42.9329 76.1042C42.9235 76.1619 42.9256 76.2207 42.939 76.2776C42.9524 76.3344 42.9769 76.3881 43.0111 76.4355C43.0453 76.4828 43.0884 76.523 43.1381 76.5537C43.1878 76.5844 43.2431 76.6051 43.3008 76.6144C48.3542 77.4724 53.5494 76.7126 58.1454 74.4435C62.7413 72.1744 66.5031 68.5119 68.8938 63.9785C71.2845 59.4452 72.182 54.2728 71.4584 49.1992C70.7347 44.1256 68.4268 39.4102 64.8639 35.7258L70.6434 29.9473C75.9216 35.3613 79.1451 42.447 79.7582 49.9826C80.3713 57.5183 78.3355 65.0316 74.0019 71.2274C73.9676 71.2757 73.9431 71.3303 73.9299 71.3881C73.9167 71.4458 73.9151 71.5056 73.925 71.564C73.9349 71.6224 73.9562 71.6783 73.9877 71.7284C74.0192 71.7786 74.0604 71.8221 74.1087 71.8563C74.1877 71.9031 74.278 71.9277 74.3698 71.9275C74.4404 71.9287 74.5101 71.9119 74.5724 71.8787C74.6347 71.8455 74.6875 71.797 74.7258 71.7377C79.1353 65.4392 81.2331 57.8111 80.6643 50.144C80.0956 42.4769 76.8952 35.2417 71.6047 29.6625L77.3486 29.8998H77.491ZM71.4623 21.416L77.8825 14.9967C77.9129 14.9639 77.9495 14.9375 77.9903 14.9191C78.0311 14.9008 78.0752 14.8909 78.1199 14.8899H78.2504C78.3141 14.9152 78.3699 14.9572 78.4117 15.0115C78.4534 15.0658 78.4798 15.1304 78.4878 15.1985L78.8913 20.4668L71.2368 28.12L71.0113 22.5432C71.0042 22.3343 71.0406 22.1263 71.1182 21.9322C71.1958 21.7381 71.313 21.5623 71.4623 21.416ZM52.7947 52.5986C52.8108 53.8483 52.3983 55.0658 51.626 56.0485C50.8536 57.0312 49.768 57.7198 48.5498 57.9998C47.3315 58.2798 46.0541 58.1341 44.9301 57.5872C43.8062 57.0403 42.9034 56.1251 42.3721 54.9938C41.8408 53.8625 41.713 52.5834 42.0099 51.3694C42.3069 50.1553 43.0107 49.0796 44.0042 48.3212C44.9978 47.5627 46.2211 47.1673 47.4707 47.2008C48.7202 47.2342 49.9206 47.6945 50.8721 48.505L48.8191 50.5696C48.3993 50.2835 47.903 50.1305 47.395 50.1306C46.8992 50.1306 46.4146 50.2777 46.0026 50.5533C45.5905 50.829 45.2696 51.2207 45.0804 51.6789C44.8913 52.137 44.8424 52.641 44.94 53.127C45.0376 53.613 45.2772 54.059 45.6286 54.4087C45.98 54.7584 46.4273 54.9959 46.9138 55.0911C47.4003 55.1864 47.9042 55.1351 48.3615 54.9438C48.8189 54.7525 49.2091 54.4298 49.4828 54.0165C49.7565 53.6032 49.9014 53.118 49.8991 52.6223C49.8985 52.1163 49.741 51.623 49.4481 51.2103L51.5012 49.1576C52.3261 50.1153 52.7845 51.3346 52.7947 52.5986ZM79.5203 21.1312L84.7775 21.5346C84.8452 21.5399 84.91 21.5644 84.9642 21.6053C85.0184 21.6461 85.0598 21.7017 85.0835 21.7653C85.1072 21.8289 85.1122 21.8979 85.0979 21.9642C85.0837 22.0306 85.0507 22.0915 85.003 22.1398L78.5827 28.559C78.4301 28.7167 78.2447 28.8387 78.0396 28.9167C77.8345 28.9946 77.6148 29.0264 77.396 29.0099L71.8302 28.7845L79.5203 21.1312Z" fill="black"></path></g><defs><clipPath id="clip0_27_2896"><rect width="72" height="72" fill="white" transform="translate(14 14)"></rect></clipPath></defs></svg> 