<svg width="100" height="100" viewBox="0 0 100 100" fill="none" xmlns="http://www.w3.org/2000/svg">
<g clip-path="url(#clip0_309_53)">
<path d="M37.1563 61.9532H40.5242C40.9174 61.9199 41.2838 61.7416 41.5507 61.4534C41.8176 61.1652 41.9657 60.788 41.9657 60.3968C41.9657 60.0055 41.8176 59.6285 41.5507 59.3403C41.2838 59.052 40.9174 58.8736 40.5242 58.8403H37.1563C36.7631 58.8736 36.3968 59.052 36.1299 59.3403C35.8629 59.6285 35.7148 60.0055 35.7148 60.3968C35.7148 60.788 35.8629 61.1652 36.1299 61.4534C36.3968 61.7416 36.7631 61.9199 37.1563 61.9532Z" fill="#002149"/>
<path d="M98.5662 65.1566C98.4541 65.1566 98.3466 65.2008 98.2674 65.2793C98.1882 65.3579 98.1437 65.4643 98.1437 65.5754V76.725C98.1439 77.3308 97.9052 77.9125 97.4785 78.3461C97.0519 78.7797 96.4712 79.0308 95.8604 79.0456H67.3988V71.337C67.409 71.2754 67.4056 71.2125 67.3887 71.1524C67.3719 71.0923 67.3421 71.0364 67.3014 70.9889C67.2606 70.9414 67.21 70.9033 67.1529 70.8771C67.0958 70.8509 67.0336 70.8373 66.9707 70.8373C66.9078 70.8373 66.8457 70.8509 66.7886 70.8771C66.7315 70.9033 66.6808 70.9414 66.6401 70.9889C66.5994 71.0364 66.5695 71.0923 66.5527 71.1524C66.5359 71.2125 66.5324 71.2754 66.5426 71.337V79.5549C66.5396 79.9792 66.3675 80.3852 66.0638 80.6842C65.7601 80.9832 65.3495 81.151 64.9215 81.151H48.9382C48.5113 81.151 48.1018 80.9828 47.8 80.6835C47.4981 80.3842 47.3285 79.9782 47.3285 79.5549V54.0635C47.3119 53.9628 47.2597 53.8713 47.1812 53.8053C47.1028 53.7392 47.0033 53.703 46.9004 53.703C46.7975 53.703 46.6979 53.7392 46.6195 53.8053C46.5411 53.8713 46.4889 53.9628 46.4723 54.0635V55.0823H1.85621V38.6691C1.86638 38.6076 1.86294 38.5446 1.8461 38.4845C1.82927 38.4244 1.79945 38.3687 1.75872 38.3212C1.718 38.2736 1.66732 38.2354 1.61023 38.2092C1.55314 38.183 1.49099 38.1694 1.42809 38.1694C1.36518 38.1694 1.30303 38.183 1.24594 38.2092C1.18885 38.2354 1.13817 38.2736 1.09745 38.3212C1.05672 38.3687 1.02694 38.4244 1.0101 38.4845C0.993268 38.5446 0.989792 38.6076 0.999963 38.6691V62.4399C0.999958 63.3146 1.34962 64.1536 1.97233 64.7732C2.59504 65.3927 3.44004 65.7423 4.32219 65.7452H32.5554V75.7402H27.1439C27.0309 75.7432 26.9235 75.7898 26.8446 75.8701C26.7657 75.9505 26.7215 76.0582 26.7215 76.1704C26.7215 76.2815 26.766 76.388 26.8453 76.4665C26.9245 76.545 27.0319 76.5892 27.1439 76.5892H46.4608V79.5775C46.4608 80.226 46.7206 80.8479 47.1831 81.3064C47.6456 81.7649 48.2728 82.0226 48.9268 82.0226H64.91C65.5042 82.0205 66.0779 81.8066 66.5264 81.4201C66.9749 81.0336 67.2683 80.5002 67.3532 79.917H95.8376C96.6854 79.917 97.4984 79.5832 98.0979 78.9888C98.6974 78.3944 99.0342 77.5883 99.0342 76.7477V65.5981C99.0379 65.5372 99.0281 65.4762 99.0056 65.4194C98.9831 65.3627 98.9483 65.3114 98.9037 65.2694C98.8591 65.2273 98.8058 65.1954 98.7475 65.176C98.6892 65.1565 98.6273 65.1499 98.5662 65.1566ZM44.2574 75.7176H33.4117V65.7226H44.2574V75.7176ZM46.4608 75.7176H45.1137V65.7226H46.4608V75.7176ZM46.4608 64.8736H4.32219C3.66713 64.8706 3.03993 64.6105 2.57779 64.1501C2.11566 63.6898 1.8562 63.0668 1.85621 62.4173V55.9313H46.4608V64.8736Z" fill="#002149"/>
<path d="M95.8376 22.4259H76.6805V21.294C76.6775 20.4193 76.325 19.5815 75.7001 18.9641C75.0753 18.3467 74.229 18 73.3469 18H4.32219C3.44201 18.003 2.59873 18.351 1.97634 18.9681C1.35395 19.5852 1.00297 20.4213 0.999963 21.294V26.1952C0.989792 26.2568 0.993268 26.3198 1.0101 26.3799C1.02694 26.44 1.05672 26.4958 1.09745 26.5433C1.13817 26.5908 1.18885 26.6291 1.24594 26.6552C1.30303 26.6814 1.36518 26.695 1.42809 26.695C1.49099 26.695 1.55314 26.6814 1.61023 26.6552C1.66732 26.6291 1.718 26.5908 1.75872 26.5433C1.79945 26.4958 1.82927 26.44 1.8461 26.3799C1.86294 26.3198 1.86638 26.2568 1.85621 26.1952V21.294C1.85621 20.6455 2.11603 20.0236 2.57849 19.5651C3.04095 19.1065 3.66818 18.849 4.32219 18.849H73.3469C74.002 18.8489 74.6304 19.1062 75.0947 19.5644C75.5589 20.0226 75.8213 20.6445 75.8243 21.294V22.4259H66.691C65.8441 22.4289 65.0328 22.7638 64.434 23.3575C63.8351 23.9513 63.4974 24.7557 63.4944 25.5954V28.5837C63.4842 28.6452 63.4877 28.7082 63.5045 28.7683C63.5213 28.8284 63.5512 28.8842 63.5919 28.9317C63.6326 28.9792 63.6832 29.0174 63.7403 29.0436C63.7974 29.0698 63.8596 29.0833 63.9225 29.0833C63.9854 29.0833 64.0476 29.0698 64.1047 29.0436C64.1618 29.0174 64.2124 28.9792 64.2531 28.9317C64.2938 28.8842 64.3237 28.8284 64.3405 28.7683C64.3573 28.7082 64.3608 28.6452 64.3506 28.5837V25.6519C64.3505 25.0462 64.5892 24.4644 65.0158 24.0308C65.4425 23.5972 66.0232 23.3462 66.634 23.3315H75.2763V24.237C75.2849 24.3882 75.3509 24.5306 75.461 24.6356C75.5711 24.7406 75.7172 24.8004 75.87 24.803H86.4531C86.6059 24.8004 86.7519 24.7406 86.8621 24.6356C86.9722 24.5306 87.0382 24.3882 87.0468 24.237V23.3315H95.8376C96.4483 23.3462 97.0291 23.5972 97.4557 24.0308C97.8824 24.4644 98.1211 25.0462 98.1209 25.6519V62.3947C98.1107 62.4563 98.1142 62.5194 98.131 62.5795C98.1478 62.6396 98.1777 62.6953 98.2184 62.7428C98.2591 62.7903 98.3098 62.8285 98.3669 62.8547C98.424 62.8809 98.4861 62.8945 98.549 62.8945C98.6119 62.8945 98.6741 62.8809 98.7312 62.8547C98.7883 62.8285 98.8389 62.7903 98.8797 62.7428C98.9204 62.6953 98.9502 62.6396 98.967 62.5795C98.9839 62.5194 98.9873 62.4563 98.9771 62.3947V25.6519C98.9894 24.8122 98.6662 24.0017 98.078 23.3973C97.4898 22.7929 96.6844 22.4438 95.8376 22.4259Z" fill="#002149"/>
<path d="M64.4077 38.9183V36.6544C64.4179 36.5929 64.4145 36.5299 64.3976 36.4698C64.3808 36.4097 64.351 36.354 64.3102 36.3064C64.2695 36.2589 64.2188 36.2207 64.1618 36.1945C64.1047 36.1683 64.0425 36.1548 63.9796 36.1548C63.9167 36.1548 63.8546 36.1683 63.7975 36.1945C63.7404 36.2207 63.6897 36.2589 63.649 36.3064C63.6082 36.354 63.5784 36.4097 63.5616 36.4698C63.5448 36.5299 63.5413 36.5929 63.5515 36.6544V38.9183C63.5413 38.9799 63.5448 39.0429 63.5616 39.103C63.5784 39.1631 63.6082 39.2188 63.649 39.2664C63.6897 39.3139 63.7404 39.3521 63.7975 39.3783C63.8546 39.4045 63.9167 39.418 63.9796 39.418C64.0425 39.418 64.1047 39.4045 64.1618 39.3783C64.2188 39.3521 64.2695 39.3139 64.3102 39.2664C64.351 39.2188 64.3808 39.1631 64.3976 39.103C64.4145 39.0429 64.4179 38.9799 64.4077 38.9183Z" fill="#002149"/>
<path d="M83.7018 75.9893H78.8612C78.5648 75.9893 78.3246 76.2274 78.3246 76.5213V76.6005C78.3246 76.8943 78.5648 77.1325 78.8612 77.1325H83.7018C83.9981 77.1325 84.2384 76.8943 84.2384 76.6005V76.5213C84.2384 76.2274 83.9981 75.9893 83.7018 75.9893Z" fill="#002149"/>
<path d="M46.4608 41.8615V43.0954C46.4775 43.1961 46.5296 43.2876 46.6081 43.3537C46.6865 43.4197 46.786 43.4559 46.8889 43.4559C46.9918 43.4559 47.0914 43.4197 47.1698 43.3537C47.2482 43.2876 47.3004 43.1961 47.3171 43.0954V41.8615C47.317 41.4372 47.4863 41.0301 47.7878 40.7289C48.0894 40.4278 48.4988 40.2572 48.9268 40.2542H52.5915V40.7975C52.5945 40.9096 52.6415 41.0162 52.7226 41.0944C52.8036 41.1726 52.9122 41.2164 53.0254 41.2164H60.8343C60.9474 41.2164 61.0561 41.1726 61.1371 41.0944C61.2181 41.0162 61.2652 40.9096 61.2681 40.7975V40.2542H64.9215C65.3505 40.2572 65.7611 40.4274 66.0645 40.7282C66.3679 41.029 66.5396 41.4361 66.5426 41.8615V68.2018C66.5592 68.3025 66.6114 68.394 66.6899 68.4601C66.7683 68.5261 66.8678 68.5625 66.9707 68.5625C67.0736 68.5625 67.1732 68.5261 67.2516 68.4601C67.33 68.394 67.3822 68.3025 67.3988 68.2018V41.8615C67.3988 41.21 67.1378 40.5853 66.6732 40.1247C66.2086 39.664 65.5785 39.4053 64.9215 39.4053H48.9382C48.2812 39.4053 47.651 39.664 47.1864 40.1247C46.7218 40.5853 46.4608 41.21 46.4608 41.8615Z" fill="#002149"/>
<path d="M46.4609 51.7659C46.4775 51.8666 46.5297 51.9583 46.6081 52.0243C46.6866 52.0904 46.7861 52.1266 46.889 52.1266C46.9919 52.1266 47.0915 52.0904 47.1699 52.0243C47.2483 51.9583 47.3005 51.8666 47.3172 51.7659V49.3097C47.3273 49.2482 47.3239 49.1851 47.307 49.125C47.2902 49.0649 47.2604 49.0092 47.2197 48.9616C47.1789 48.9141 47.1283 48.8759 47.0712 48.8497C47.0141 48.8235 46.9519 48.8101 46.889 48.8101C46.8261 48.8101 46.764 48.8235 46.7069 48.8497C46.6498 48.8759 46.5991 48.9141 46.5584 48.9616C46.5177 49.0092 46.4878 49.0649 46.471 49.125C46.4542 49.1851 46.4507 49.2482 46.4609 49.3097V51.7659Z" fill="#002149"/>
<path d="M58.9506 79.2832H54.9091C54.6632 79.2832 54.4639 79.4808 54.4639 79.7247V79.7926C54.4639 80.0364 54.6632 80.234 54.9091 80.234H58.9506C59.1965 80.234 59.3958 80.0364 59.3958 79.7926V79.7247C59.3958 79.4808 59.1965 79.2832 58.9506 79.2832Z" fill="#002149"/>
<path d="M44.8739 36.575C44.9236 36.5423 44.9613 36.4945 44.9811 36.4387C45.0009 36.383 45.0018 36.3224 44.9838 36.2661C44.9657 36.2097 44.9296 36.1608 44.8809 36.1267C44.8322 36.0925 44.7737 36.0751 44.7141 36.0769H40.627C40.5682 36.077 40.5109 36.0584 40.4636 36.0237C40.4163 35.9891 40.3815 35.9402 40.3644 35.8844L39.0971 32.0359C39.0803 31.9798 39.0456 31.9306 38.9983 31.8956C38.951 31.8607 38.8936 31.8418 38.8346 31.8418C38.7755 31.8418 38.7181 31.8607 38.6708 31.8956C38.6235 31.9306 38.5888 31.9798 38.572 32.0359L37.3161 35.8844C37.2975 35.9393 37.2623 35.9872 37.2153 36.0216C37.1684 36.056 37.1119 36.0753 37.0536 36.0769H32.9664C32.9068 36.0751 32.8483 36.0925 32.7996 36.1267C32.7509 36.1608 32.7148 36.2097 32.6967 36.2661C32.6787 36.3224 32.6796 36.383 32.6994 36.4387C32.7192 36.4945 32.7569 36.5423 32.8066 36.575L36.106 38.952C36.1537 38.9854 36.1895 39.0331 36.208 39.0881C36.2265 39.1431 36.2267 39.2025 36.2087 39.2577L34.9415 43.1176C34.9264 43.1717 34.9285 43.229 34.9476 43.2818C34.9666 43.3346 35.0017 43.3802 35.048 43.4125C35.0942 43.4447 35.1495 43.4619 35.206 43.4618C35.2626 43.4617 35.3177 43.4442 35.3639 43.4118L38.6747 41.0348C38.7213 41.0016 38.7772 40.9838 38.8346 40.9838C38.8919 40.9838 38.9478 41.0016 38.9944 41.0348L42.3052 43.4118C42.3513 43.4442 42.4065 43.4617 42.4631 43.4618C42.5196 43.4619 42.5748 43.4447 42.6211 43.4125C42.6674 43.3802 42.7025 43.3346 42.7216 43.2818C42.7406 43.229 42.7427 43.1717 42.7276 43.1176L41.4718 39.2577C41.4507 39.2039 41.4482 39.1447 41.4647 39.0894C41.4813 39.034 41.5159 38.9857 41.5631 38.952L44.8739 36.575Z" fill="#002149"/>
<path d="M62.9579 57.9691C63.0027 57.9348 63.0357 57.8877 63.0524 57.8341C63.0691 57.7805 63.0687 57.7231 63.0512 57.6698C63.0336 57.6165 62.9999 57.5697 62.9546 57.5362C62.9093 57.5026 62.8546 57.4838 62.798 57.4823H58.7109C58.653 57.4792 58.5972 57.4593 58.5505 57.4251C58.5039 57.3909 58.4683 57.3438 58.4483 57.2898L57.1925 53.43C57.1756 53.3739 57.141 53.3247 57.0937 53.2897C57.0464 53.2548 56.9889 53.2358 56.9299 53.2358C56.8709 53.2358 56.8135 53.2548 56.7662 53.2897C56.7189 53.3247 56.6842 53.3739 56.6673 53.43L55.4001 57.2898C55.3829 57.3456 55.3482 57.3944 55.3009 57.4291C55.2536 57.4637 55.1963 57.4824 55.1375 57.4823H51.0504C50.9938 57.4838 50.9391 57.5026 50.8938 57.5362C50.8485 57.5697 50.8148 57.6165 50.7973 57.6698C50.7798 57.7231 50.7793 57.7805 50.796 57.8341C50.8127 57.8877 50.8457 57.9348 50.8905 57.9691L54.2013 60.3575C54.2478 60.392 54.2825 60.4396 54.3009 60.4943C54.3192 60.5489 54.3203 60.6078 54.3041 60.6631L53.0369 64.5116C53.0181 64.5664 53.0175 64.6257 53.0352 64.6809C53.0528 64.736 53.0877 64.7842 53.1348 64.8183C53.182 64.8525 53.2389 64.8706 53.2972 64.8704C53.3556 64.8703 53.4124 64.8516 53.4593 64.8172L56.7701 62.4402C56.814 62.4012 56.871 62.3797 56.9299 62.3797C56.9889 62.3797 57.0458 62.4012 57.0897 62.4402L60.4005 64.8172C60.4475 64.8516 60.5042 64.8703 60.5626 64.8704C60.6209 64.8706 60.6778 64.8525 60.725 64.8183C60.7721 64.7842 60.807 64.736 60.8247 64.6809C60.8423 64.6257 60.8417 64.5664 60.823 64.5116L59.5557 60.6631C59.5377 60.608 59.538 60.5485 59.5565 60.4936C59.575 60.4386 59.6107 60.3909 59.6585 60.3575L62.9579 57.9691Z" fill="#002149"/>
<path d="M87.3095 47.4872C87.3543 47.453 87.3873 47.4058 87.404 47.3522C87.4207 47.2987 87.4202 47.2413 87.4027 47.1879C87.3852 47.1346 87.3515 47.0879 87.3062 47.0543C87.2609 47.0208 87.2062 47.002 87.1496 47.0004H83.0625C83.0041 46.9988 82.9476 46.9796 82.9007 46.9452C82.8537 46.9108 82.8186 46.8628 82.7999 46.808L81.5327 42.9481C81.5132 42.8961 81.4781 42.8513 81.4322 42.8196C81.3863 42.788 81.3317 42.771 81.2758 42.771C81.2199 42.771 81.1653 42.788 81.1193 42.8196C81.0734 42.8513 81.0384 42.8961 81.0189 42.9481L79.7517 46.808C79.7345 46.8637 79.6997 46.9126 79.6525 46.9472C79.6052 46.9819 79.5479 47.0005 79.4891 47.0004H75.402C75.3454 47.002 75.2907 47.0208 75.2454 47.0543C75.2001 47.0879 75.1664 47.1346 75.1488 47.1879C75.1313 47.2413 75.1309 47.2987 75.1476 47.3522C75.1643 47.4058 75.1973 47.453 75.2421 47.4872L78.5529 49.8756C78.6001 49.9093 78.6347 49.9576 78.6513 50.013C78.6678 50.0683 78.6654 50.1275 78.6443 50.1813L77.3884 54.0298C77.3697 54.0846 77.3691 54.1439 77.3867 54.199C77.4044 54.2542 77.4393 54.3024 77.4864 54.3365C77.5336 54.3706 77.5904 54.3889 77.6488 54.3887C77.7072 54.3886 77.7639 54.3698 77.8108 54.3354L81.1103 51.9584C81.1571 51.9207 81.2155 51.9 81.2758 51.9C81.3361 51.9 81.3945 51.9207 81.4413 51.9584L84.7407 54.3354C84.7876 54.3698 84.8444 54.3886 84.9028 54.3887C84.9611 54.3889 85.018 54.3706 85.0652 54.3365C85.1123 54.3024 85.1472 54.2542 85.1648 54.199C85.1825 54.1439 85.1819 54.0846 85.1631 54.0298L83.9073 50.1813C83.8862 50.1275 83.8838 50.0683 83.9003 50.013C83.9168 49.9576 83.9514 49.9093 83.9987 49.8756L87.3095 47.4872Z" fill="#002149"/>
</g>
<defs>
<clipPath id="clip0_309_53">
<rect width="98" height="64" fill="white" transform="translate(1 18)"/>
</clipPath>
</defs>
</svg>
