<svg width="100" height="100" viewBox="0 0 100 100" fill="none" xmlns="http://www.w3.org/2000/svg">
<path d="M75.5973 76.7865H17.2107C16.9479 76.7886 16.6874 76.739 16.444 76.6405C16.2006 76.5419 15.9793 76.3964 15.7927 76.2124C15.6062 76.0284 15.4581 75.8094 15.3571 75.5681C15.256 75.3269 15.204 75.0682 15.204 74.8069V23.5906C15.1806 23.4486 15.1072 23.3195 14.997 23.2263C14.8867 23.1332 14.7467 23.082 14.602 23.082C14.4573 23.082 14.3173 23.1332 14.207 23.2263C14.0968 23.3195 14.0234 23.4486 14 23.5906V74.8069C14 75.6537 14.3383 76.4659 14.9404 77.0647C15.5425 77.6635 16.3592 77.9999 17.2107 77.9999H75.5973C75.7549 77.9999 75.9059 77.9377 76.0173 77.8269C76.1287 77.7161 76.1913 77.5659 76.1913 77.4092C76.1913 77.251 76.1293 77.0991 76.0183 76.9858C75.9074 76.8724 75.7563 76.8067 75.5973 76.8025" fill="#002149"/>
<path d="M76.6087 32.084C76.5521 32.027 76.4846 31.9821 76.41 31.9519C76.3355 31.9217 76.2556 31.9069 76.1752 31.9084H61.5986C61.5113 31.8942 61.422 31.899 61.3367 31.9225C61.2515 31.946 61.1724 31.9877 61.105 32.0447C61.0376 32.1017 60.9835 32.1725 60.9463 32.2524C60.9092 32.3322 60.8899 32.4191 60.8899 32.5071C60.8899 32.595 60.9092 32.6819 60.9463 32.7618C60.9835 32.8416 61.0376 32.9125 61.105 32.9694C61.1724 33.0264 61.2515 33.0681 61.3367 33.0916C61.422 33.1152 61.5113 33.12 61.5986 33.1058H74.7304L45.4167 62.2422L37.3899 54.2596L23.0702 68.4686C22.8942 68.3867 22.7026 68.3432 22.5083 68.3409H21.1116C20.9353 68.3388 20.7603 68.3715 20.5968 68.4371C20.4333 68.5028 20.2845 68.6001 20.1591 68.7233C20.0336 68.8466 19.9341 68.9934 19.8661 69.1552C19.7981 69.317 19.7631 69.4906 19.7632 69.666V71.0709C19.761 71.2476 19.7944 71.423 19.8614 71.5866C19.9284 71.7503 20.0277 71.899 20.1533 72.024C20.279 72.1489 20.4285 72.2476 20.5931 72.3143C20.7577 72.3809 20.934 72.4141 21.1116 72.412H22.5083C22.6846 72.412 22.8592 72.3772 23.0219 72.3096C23.1847 72.242 23.3323 72.143 23.4562 72.0183C23.5801 71.8935 23.6779 71.7456 23.744 71.5829C23.81 71.4203 23.8429 71.2463 23.8407 71.0709V69.682C23.8483 69.6023 23.8483 69.5221 23.8407 69.4425L37.4541 55.904L45.4809 63.9664L75.6454 33.9679V47.0274C75.6311 47.1142 75.636 47.203 75.6597 47.2878C75.6833 47.3726 75.7252 47.4512 75.7825 47.5183C75.8398 47.5853 75.911 47.6391 75.9913 47.6761C76.0716 47.713 76.159 47.7322 76.2474 47.7322C76.3359 47.7322 76.4233 47.713 76.5036 47.6761C76.5838 47.6391 76.6551 47.5853 76.7124 47.5183C76.7696 47.4512 76.8115 47.3726 76.8352 47.2878C76.8589 47.203 76.8637 47.1142 76.8494 47.0274V32.5151C76.8497 32.4376 76.8341 32.3609 76.8038 32.2896C76.7734 32.2182 76.7289 32.1537 76.6729 32.1" fill="#002149"/>
<path d="M85.4061 76.7866H79.8355C79.6737 76.7866 79.5185 76.8505 79.4041 76.9643C79.2897 77.0781 79.2255 77.2324 79.2255 77.3933C79.2254 77.4722 79.2413 77.5504 79.2722 77.6231C79.303 77.6959 79.3482 77.7617 79.4051 77.8167C79.462 77.8718 79.5293 77.915 79.6033 77.9437C79.6772 77.9724 79.7562 77.9861 79.8355 77.984H85.4061C85.5636 77.984 85.7147 77.9218 85.8261 77.811C85.9375 77.7002 86.0001 77.55 86.0001 77.3933C86.0001 77.2351 85.938 77.0832 85.8271 76.9699C85.7161 76.8565 85.5651 76.7908 85.4061 76.7866Z" fill="#002149"/>
</svg>
