<svg width="100" height="100" viewBox="0 0 100 100" fill="none" xmlns="http://www.w3.org/2000/svg">
<g clip-path="url(#clip0_309_78)">
<path d="M11.4455 51.1985C11.5648 51.1985 11.6794 51.1524 11.7649 51.07C11.8504 50.9876 11.9 50.8754 11.9031 50.7573V48.0507C11.9138 47.9859 11.9102 47.9196 11.8924 47.8563C11.8747 47.793 11.8432 47.7342 11.8003 47.6842C11.7573 47.6341 11.7039 47.5939 11.6437 47.5663C11.5835 47.5387 11.5179 47.5244 11.4516 47.5244C11.3852 47.5244 11.3196 47.5387 11.2594 47.5663C11.1992 47.5939 11.1458 47.6341 11.1029 47.6842C11.0599 47.7342 11.0285 47.793 11.0107 47.8563C10.9929 47.9196 10.9893 47.9859 11 48.0507V50.7573C11.0031 50.8734 11.051 50.9838 11.1339 51.0659C11.2168 51.148 11.3283 51.1955 11.4455 51.1985Z" fill="#002149"/>
<path d="M71.1676 62.3345C71.1081 62.333 71.0489 62.3432 70.9934 62.3646C70.938 62.3861 70.8874 62.4183 70.8448 62.4595C70.8021 62.5006 70.7682 62.5498 70.7451 62.6041C70.7219 62.6584 70.71 62.7167 70.7101 62.7757V72.6004C70.7101 73.5269 70.3384 74.4155 69.6767 75.0707C69.0151 75.7259 68.1178 76.0939 67.1821 76.0939H15.4068C14.4712 76.0939 13.5739 75.7259 12.9122 75.0707C12.2506 74.4155 11.8789 73.5269 11.8789 72.6004V53.3564C11.8896 53.2916 11.886 53.2252 11.8683 53.1619C11.8505 53.0986 11.8191 53.0399 11.7761 52.9898C11.7332 52.9397 11.6797 52.8995 11.6195 52.872C11.5593 52.8444 11.4937 52.8301 11.4274 52.8301C11.361 52.8301 11.2955 52.8444 11.2353 52.872C11.1751 52.8995 11.1216 52.9397 11.0787 52.9898C11.0357 53.0399 11.0043 53.0986 10.9866 53.1619C10.9688 53.2252 10.9651 53.2916 10.9759 53.3564V72.6481C10.9759 73.8118 11.4427 74.9278 12.2737 75.7507C13.1046 76.5735 14.2317 77.0358 15.4068 77.0358H67.1821C68.3573 77.0358 69.4843 76.5735 70.3153 75.7507C71.1463 74.9278 71.6131 73.8118 71.6131 72.6481V62.7757C71.6148 62.7173 71.6044 62.6592 71.5826 62.605C71.5608 62.5507 71.528 62.5014 71.4863 62.4601C71.4446 62.4188 71.3948 62.3864 71.34 62.3648C71.2852 62.3432 71.2266 62.3329 71.1676 62.3345Z" fill="#002149"/>
<path d="M67.1822 34.2793H15.4069C14.2318 34.2793 13.1047 34.7416 12.2738 35.5644C11.4428 36.3873 10.976 37.5033 10.976 38.667V41.469C10.9935 41.575 11.0486 41.6714 11.1313 41.741C11.214 41.8106 11.319 41.8488 11.4275 41.8488C11.536 41.8488 11.641 41.8106 11.7237 41.741C11.8064 41.6714 11.8615 41.575 11.879 41.469V38.667C11.879 37.7405 12.2507 36.8519 12.9123 36.1968C13.5739 35.5416 14.4713 35.1735 15.4069 35.1735H67.1822C68.1178 35.1735 69.0152 35.5416 69.6768 36.1968C70.3384 36.8519 70.7101 37.7405 70.7101 38.667V59.3179C70.7101 59.4381 70.7584 59.5534 70.8442 59.6383C70.93 59.7233 71.0464 59.771 71.1677 59.771C71.2272 59.771 71.2861 59.7593 71.341 59.7363C71.3958 59.7134 71.4455 59.6799 71.4871 59.6376C71.5286 59.5954 71.5611 59.5453 71.5828 59.4904C71.6045 59.4355 71.6148 59.3769 71.6132 59.3179V38.7028C71.618 38.1236 71.5069 37.5492 71.2863 37.0127C71.0658 36.4762 70.7401 35.9883 70.3282 35.5771C69.9163 35.1658 69.4262 34.8394 68.8862 34.6167C68.3463 34.3939 67.7671 34.2793 67.1822 34.2793Z" fill="#002149"/>
<path d="M84.569 23H32.7938C31.6186 23 30.4916 23.4623 29.6606 24.2851C28.8296 25.108 28.3628 26.224 28.3628 27.3877V29.7723C28.3628 29.8905 28.4093 30.0039 28.4925 30.0886C28.5758 30.1732 28.689 30.2223 28.8083 30.2254L88.0729 30.297V36.6639H75.5385C75.4203 36.6639 75.307 36.7104 75.2234 36.7931C75.1399 36.8759 75.093 36.9881 75.093 37.1051C75.0929 37.2232 75.1395 37.3367 75.2227 37.4213C75.3059 37.506 75.4192 37.5551 75.5385 37.5582H88.097V47.8836C88.097 47.9426 88.1089 48.001 88.132 48.0553C88.1551 48.1096 88.189 48.1587 88.2317 48.1999C88.2744 48.241 88.3249 48.2732 88.3803 48.2947C88.4358 48.3161 88.495 48.3264 88.5545 48.3248C88.6135 48.3264 88.6721 48.3161 88.727 48.2945C88.7818 48.273 88.8315 48.2405 88.8732 48.1992C88.9149 48.158 88.9477 48.1087 88.9695 48.0544C88.9913 48.0001 89.0017 47.942 89 47.8836V27.3877C89 26.224 88.5332 25.108 87.7022 24.2851C86.8713 23.4623 85.7442 23 84.569 23ZM29.29 29.367V27.3877C29.29 26.4612 29.6616 25.5726 30.3232 24.9174C30.9849 24.2623 31.8822 23.8942 32.8179 23.8942H84.5931C85.5288 23.8942 86.4261 24.2623 87.0877 24.9174C87.7494 25.5726 88.1211 26.4612 88.1211 27.3877V29.4385L29.29 29.367Z" fill="#002149"/>
<path d="M88.5545 50.9717C88.4352 50.9716 88.3206 51.0177 88.2352 51.1001C88.1497 51.1825 88.1001 51.2947 88.097 51.4128V61.3091C88.097 62.2356 87.7253 63.1242 87.0637 63.7793C86.402 64.4345 85.5047 64.8025 84.569 64.8025H75.5987C75.5332 64.7919 75.4661 64.7956 75.4022 64.8131C75.3383 64.8307 75.279 64.8618 75.2285 64.9043C75.1779 64.9469 75.1373 64.9998 75.1094 65.0594C75.0815 65.119 75.0671 65.1839 75.0671 65.2496C75.0671 65.3153 75.0815 65.3802 75.1094 65.4399C75.1373 65.4995 75.1779 65.5524 75.2285 65.5949C75.279 65.6375 75.3383 65.6686 75.4022 65.6862C75.4661 65.7038 75.5332 65.7074 75.5987 65.6968H84.569C85.7442 65.6968 86.8712 65.2345 87.7022 64.4117C88.5332 63.5888 89 62.4728 89 61.3091V51.4128C89 51.2958 88.9531 51.1836 88.8695 51.1009C88.786 51.0182 88.6726 50.9717 88.5545 50.9717Z" fill="#002149"/>
<path d="M58.6934 41.7192C57.6265 41.7223 56.584 42.036 55.6956 42.621C54.8071 43.2061 54.112 44.0369 53.6965 45.01C53.2089 43.867 52.3371 42.9261 51.2289 42.3469C50.1207 41.7678 48.8443 41.5859 47.6161 41.8322C46.388 42.0786 45.2836 42.7379 44.4904 43.6985C43.6971 44.6591 43.2638 45.8617 43.2638 47.1026C43.2638 48.3434 43.6971 49.5461 44.4904 50.5066C45.2836 51.4672 46.388 52.1265 47.6161 52.3729C48.8443 52.6192 50.1207 52.4374 51.2289 51.8582C52.3371 51.279 53.2089 50.3381 53.6965 49.1951C54.0796 50.09 54.7005 50.8654 55.4931 51.4388C56.2858 52.0122 57.2206 52.3621 58.198 52.4512C59.1755 52.5404 60.1591 52.3656 61.0442 51.9454C61.9293 51.5251 62.6829 50.8751 63.2247 50.0645C63.7665 49.254 64.0763 48.3131 64.1211 47.3421C64.1659 46.3711 63.9441 45.4062 63.4792 44.5501C63.0144 43.694 62.3239 42.9786 61.4812 42.4802C60.6385 41.9817 59.6751 41.7187 58.6934 41.7192Z" fill="#002149"/>
<path d="M21.8849 56.4562H26.1112C27.0692 56.4562 27.988 56.0793 28.6654 55.4085C29.3428 54.7377 29.7234 53.8279 29.7234 52.8792V51.4246C29.7234 50.4759 29.3428 49.5661 28.6654 48.8953C27.988 48.2245 27.0692 47.8477 26.1112 47.8477H21.9451C20.9871 47.8477 20.0683 48.2245 19.3909 48.8953C18.7134 49.5661 18.3329 50.4759 18.3329 51.4246V52.8792C18.3328 53.8177 18.7051 54.7185 19.3695 55.3877C20.034 56.0568 20.9373 56.4405 21.8849 56.4562ZM28.7361 51.4365V52.8911C28.7377 53.2413 28.6694 53.5884 28.5352 53.9123C28.4009 54.2363 28.2034 54.5308 27.9539 54.779C27.7044 55.0271 27.4079 55.224 27.0813 55.3584C26.7548 55.4928 26.4046 55.5619 26.051 55.5619H24.3292V48.7657H26.1112C26.8139 48.7844 27.4815 49.074 27.9718 49.5729C28.4621 50.0717 28.7363 50.7404 28.7361 51.4365ZM19.1998 51.4365C19.1998 50.7303 19.4823 50.0527 19.9855 49.5522C20.4887 49.0517 21.1717 48.7689 21.8849 48.7657H23.4261V55.5619H21.8849C21.5313 55.5619 21.1811 55.4928 20.8546 55.3584C20.528 55.224 20.2315 55.0271 19.982 54.779C19.7325 54.5308 19.535 54.2363 19.4007 53.9123C19.2665 53.5884 19.1982 53.2413 19.1998 52.8911V51.4365Z" fill="#002149"/>
<path d="M18.7422 62.3225H26.364C26.4711 62.3051 26.5685 62.2506 26.6388 62.1687C26.709 62.0868 26.7476 61.9828 26.7476 61.8753C26.7476 61.7679 26.709 61.6639 26.6388 61.582C26.5685 61.5001 26.4711 61.4456 26.364 61.4282H18.7422C18.6351 61.4456 18.5377 61.5001 18.4675 61.582C18.3972 61.6639 18.3586 61.7679 18.3586 61.8753C18.3586 61.9828 18.3972 62.0868 18.4675 62.1687C18.5377 62.2506 18.6351 62.3051 18.7422 62.3225Z" fill="#002149"/>
<path d="M38.8744 62.3226C38.9399 62.3332 39.0069 62.3296 39.0708 62.312C39.1347 62.2944 39.194 62.2633 39.2446 62.2207C39.2952 62.1782 39.3358 62.1253 39.3636 62.0657C39.3915 62.006 39.4059 61.9411 39.4059 61.8754C39.4059 61.8097 39.3915 61.7448 39.3636 61.6852C39.3358 61.6256 39.2952 61.5727 39.2446 61.5301C39.194 61.4876 39.1347 61.4565 39.0708 61.4389C39.0069 61.4213 38.9399 61.4177 38.8744 61.4283H31.2526C31.1455 61.4457 31.0481 61.5002 30.9779 61.5821C30.9076 61.664 30.869 61.768 30.869 61.8754C30.869 61.9829 30.9076 62.0869 30.9779 62.1688C31.0481 62.2507 31.1455 62.3052 31.2526 62.3226H38.8744Z" fill="#002149"/>
<path d="M43.7268 62.3226H51.3968C51.4623 62.3332 51.5293 62.3296 51.5932 62.312C51.6571 62.2944 51.7164 62.2633 51.767 62.2207C51.8176 62.1782 51.8582 62.1253 51.886 62.0657C51.9139 62.006 51.9283 61.9411 51.9283 61.8754C51.9283 61.8097 51.9139 61.7448 51.886 61.6852C51.8582 61.6256 51.8176 61.5727 51.767 61.5301C51.7164 61.4876 51.6571 61.4565 51.5932 61.4389C51.5293 61.4213 51.4623 61.4177 51.3968 61.4283H43.787C43.7215 61.4177 43.6545 61.4213 43.5906 61.4389C43.5267 61.4565 43.4674 61.4876 43.4168 61.5301C43.3662 61.5727 43.3256 61.6256 43.2978 61.6852C43.2699 61.7448 43.2555 61.8097 43.2555 61.8754C43.2555 61.9411 43.2699 62.006 43.2978 62.0657C43.3256 62.1253 43.3662 62.1782 43.4168 62.2207C43.4674 62.2633 43.5267 62.2944 43.5906 62.312C43.6545 62.3296 43.7215 62.3332 43.787 62.3226H43.7268Z" fill="#002149"/>
<path d="M55.8759 61.8813C55.8759 61.9983 55.9228 62.1105 56.0064 62.1933C56.0899 62.276 56.2032 62.3225 56.3214 62.3225H63.9432C64.0503 62.3051 64.1477 62.2506 64.2179 62.1687C64.2882 62.0868 64.3268 61.9828 64.3268 61.8753C64.3268 61.7679 64.2882 61.6639 64.2179 61.582C64.1477 61.5001 64.0503 61.4456 63.9432 61.4282H56.3214C56.2619 61.4282 56.2029 61.44 56.1481 61.4629C56.0932 61.4858 56.0436 61.5194 56.002 61.5617C55.9605 61.6039 55.928 61.6539 55.9063 61.7088C55.8846 61.7637 55.8743 61.8224 55.8759 61.8813Z" fill="#002149"/>
<path d="M18.7422 68.4748H43.7267C43.7857 68.4765 43.8444 68.4662 43.8992 68.4446C43.954 68.423 44.0038 68.3906 44.0455 68.3493C44.0872 68.308 44.1199 68.2586 44.1417 68.2044C44.1635 68.1501 44.1739 68.092 44.1723 68.0337C44.1739 67.9747 44.1635 67.9161 44.1419 67.8612C44.1202 67.8063 44.0876 67.7562 44.0461 67.714C44.0046 67.6717 43.9549 67.6382 43.9001 67.6153C43.8452 67.5924 43.7863 67.5805 43.7267 67.5806H18.7422C18.6827 67.5805 18.6237 67.5924 18.5689 67.6153C18.514 67.6382 18.4644 67.6717 18.4228 67.714C18.3813 67.7562 18.3487 67.8063 18.3271 67.8612C18.3054 67.9161 18.2951 67.9747 18.2967 68.0337C18.295 68.092 18.3054 68.1501 18.3272 68.2044C18.349 68.2586 18.3817 68.308 18.4235 68.3493C18.4652 68.3906 18.5149 68.423 18.5697 68.4446C18.6245 68.4662 18.6832 68.4765 18.7422 68.4748Z" fill="#002149"/>
</g>
<defs>
<clipPath id="clip0_309_78">
<rect width="78" height="54" fill="white" transform="translate(11 23)"/>
</clipPath>
</defs>
</svg>
