<svg width="32" height="32" viewBox="0 0 32 32" fill="none" xmlns="http://www.w3.org/2000/svg">
<rect width="32" height="32" rx="16" fill="#002149"/>
<path d="M13.0842 16C13.0842 14.3892 14.3896 13.0831 16.0004 13.0831C17.6111 13.0831 18.9173 14.3892 18.9173 16C18.9173 17.6108 17.6111 18.9169 16.0004 18.9169C14.3896 18.9169 13.0842 17.6108 13.0842 16ZM11.5073 16C11.5073 18.4815 13.5189 20.493 16.0004 20.493C18.4819 20.493 20.4934 18.4815 20.4934 16C20.4934 13.5185 18.4819 11.507 16.0004 11.507C13.5189 11.507 11.5073 13.5185 11.5073 16ZM19.6213 11.3288C19.6212 11.5365 19.6827 11.7395 19.798 11.9122C19.9133 12.085 20.0772 12.2196 20.269 12.2992C20.4609 12.3787 20.672 12.3996 20.8757 12.3592C21.0794 12.3187 21.2665 12.2188 21.4134 12.072C21.5603 11.9252 21.6604 11.7382 21.701 11.5345C21.7416 11.3308 21.7209 11.1197 21.6415 10.9278C21.5621 10.7359 21.4276 10.5719 21.255 10.4564C21.0823 10.341 20.8793 10.2793 20.6717 10.2793H20.6713C20.3929 10.2794 20.126 10.39 19.9291 10.5868C19.7322 10.7836 19.6215 11.0505 19.6213 11.3288ZM12.4654 23.1223C11.6123 23.0834 11.1486 22.9413 10.8405 22.8213C10.4319 22.6623 10.1405 22.4728 9.834 22.1668C9.52754 21.8608 9.33784 21.5696 9.1795 21.161C9.05938 20.853 8.91728 20.3892 8.8785 19.5361C8.83608 18.6138 8.82761 18.3367 8.82761 16.0001C8.82761 13.6634 8.83678 13.3871 8.8785 12.464C8.91735 11.6109 9.0605 11.148 9.1795 10.8391C9.33854 10.4306 9.52796 10.1391 9.834 9.83265C10.14 9.52619 10.4312 9.33649 10.8405 9.17815C11.1485 9.05803 11.6123 8.91593 12.4654 8.87715C13.3877 8.83473 13.6647 8.82626 16.0004 8.82626C18.336 8.82626 18.6133 8.83543 19.5364 8.87715C20.3895 8.916 20.8524 9.05915 21.1613 9.17815C21.5698 9.33649 21.8613 9.52661 22.1678 9.83265C22.4742 10.1387 22.6632 10.4306 22.8223 10.8391C22.9424 11.1471 23.0845 11.6109 23.1233 12.464C23.1657 13.3871 23.1742 13.6634 23.1742 16.0001C23.1742 18.3367 23.1657 18.613 23.1233 19.5361C23.0844 20.3892 22.9416 20.8529 22.8223 21.161C22.6632 21.5696 22.4738 21.861 22.1678 22.1668C21.8617 22.4726 21.5698 22.6623 21.1613 22.8213C20.8533 22.9414 20.3895 23.0835 19.5364 23.1223C18.6141 23.1647 18.337 23.1732 16.0004 23.1732C13.6637 23.1732 13.3874 23.1647 12.4654 23.1223ZM12.3929 7.30299C11.4614 7.34541 10.8249 7.49311 10.269 7.70941C9.69337 7.93278 9.20603 8.23245 8.71904 8.71867C8.23205 9.20489 7.93315 9.693 7.70978 10.2687C7.49348 10.8249 7.34578 11.4611 7.30336 12.3926C7.26024 13.3255 7.25037 13.6238 7.25037 16C7.25037 18.3762 7.26024 18.6745 7.30336 19.6075C7.34578 20.539 7.49348 21.1751 7.70978 21.7313C7.93315 22.3067 8.23212 22.7953 8.71904 23.2813C9.20596 23.7673 9.69337 24.0666 10.269 24.2906C10.826 24.5069 11.4614 24.6546 12.3929 24.697C13.3264 24.7394 13.6241 24.75 16.0004 24.75C18.3766 24.75 18.6749 24.7401 19.6078 24.697C20.5394 24.6546 21.1755 24.5069 21.7317 24.2906C22.307 24.0666 22.7947 23.7675 23.2817 23.2813C23.7687 22.7951 24.067 22.3067 24.291 21.7313C24.5073 21.1751 24.6557 20.5389 24.6974 19.6075C24.7398 18.6738 24.7497 18.3762 24.7497 16C24.7497 13.6238 24.7398 13.3255 24.6974 12.3926C24.655 11.461 24.5073 10.8246 24.291 10.2687C24.067 9.69335 23.7679 9.20566 23.2817 8.71867C22.7955 8.23168 22.307 7.93278 21.7324 7.70941C21.1755 7.49311 20.5393 7.34471 19.6085 7.30299C18.6756 7.26057 18.3773 7.25 16.0011 7.25C13.6248 7.25 13.3264 7.25987 12.3929 7.30299Z" fill="white"/>
</svg>
