<svg width="32" height="32" viewBox="0 0 32 32" fill="none" xmlns="http://www.w3.org/2000/svg">
<rect width="32" height="32" rx="16" fill="#002149"/>
<path d="M23.7729 22.6063C22.8542 22.5844 21.9573 22.5844 21.0386 22.6063C20.8417 22.6063 20.7979 22.5625 20.7979 22.3656C20.7979 20.7469 20.7979 19.1063 20.7979 17.4875C20.7979 17.1156 20.7761 16.7438 20.6667 16.3938C20.3386 15.2563 19.0261 14.8406 18.0854 15.6063C17.5823 16 17.3854 16.5469 17.3854 17.2031C17.3854 18.7344 17.3854 20.2656 17.3854 21.7969C17.3854 21.9938 17.3636 22.1906 17.3854 22.4094C17.4073 22.5844 17.3198 22.6281 17.1667 22.6063C16.2261 22.6063 15.3073 22.6063 14.3667 22.6063C14.1917 22.6063 14.1479 22.5625 14.1479 22.3875C14.1698 21.0094 14.1698 19.6313 14.1698 18.2313C14.1698 16.525 14.1698 14.8188 14.1479 13.1344C14.1479 12.9375 14.1917 12.8938 14.3667 12.8938C15.3073 12.8938 16.2261 12.8938 17.1667 12.8938C17.3417 12.8938 17.3854 12.9375 17.3854 13.1125C17.3854 13.4625 17.3854 13.8125 17.3854 14.2281C17.4511 14.1625 17.4729 14.1406 17.4948 14.1188C18.3479 12.8719 19.5511 12.5219 20.9729 12.7406C22.6136 13.0031 23.6636 14.1406 23.9261 15.8906C23.9917 16.3063 24.0136 16.7219 24.0136 17.1375C24.0136 18.8875 24.0136 20.6156 24.0136 22.3656C24.0136 22.5406 23.9698 22.6063 23.7729 22.6063Z" fill="white"/>
<path d="M12.3979 17.7498C12.3979 19.2811 12.3979 20.8123 12.3979 22.3436C12.3979 22.5404 12.3541 22.6061 12.1573 22.6061C11.2385 22.5842 10.3198 22.6061 9.401 22.6061C9.226 22.6061 9.18225 22.5623 9.18225 22.3873C9.18225 19.3029 9.18225 16.1967 9.18225 13.1123C9.18225 12.9592 9.226 12.8936 9.401 12.8936C10.3416 12.8936 11.2823 12.8936 12.2229 12.8936C12.4198 12.8936 12.4416 12.9592 12.4416 13.1342C12.3979 14.6654 12.3979 16.1967 12.3979 17.7498Z" fill="white"/>
<path d="M12.5511 10.3561C12.3323 11.2311 11.4354 11.7343 10.4073 11.5593C9.31355 11.3843 8.70105 10.3124 9.0948 9.26239C9.3573 8.60614 9.99168 8.21239 10.8011 8.23426C12.0261 8.21239 12.8354 9.19676 12.5511 10.3561Z" fill="white"/>
</svg>
