<svg width="155" height="48" viewBox="0 0 155 48" fill="none" xmlns="http://www.w3.org/2000/svg">
<path d="M67.113 41.9533V28.1837L64.317 28.0454V22.7522L74.0013 22.5158V27.4491C74.42 26.1642 75.1369 24.9966 76.0932 24.0416C76.637 23.5123 77.2807 23.0964 77.9868 22.8183C78.693 22.5401 79.4475 22.4054 80.2062 22.4217C81.0347 22.4266 81.8579 22.5533 82.6494 22.798L82.3201 29.0484C81.524 28.8806 80.7138 28.788 79.9004 28.7718C79.0753 28.7593 78.2594 28.9471 77.5227 29.3191C76.7861 29.6912 76.1508 30.2362 75.6711 30.9078C75.0006 31.8479 74.5431 32.9229 74.3306 34.0579V41.952L77.5969 42.118V47.4028H64.3157V42.118L67.113 41.9533Z" fill="black"/>
<path d="M88.2703 41.9532V28.2099L85.4744 28.0439V22.7592L95.5322 22.5239V41.9561L98.3281 42.1221V47.4068H85.4744V42.1221L88.2703 41.9532Z" fill="black"/>
<path d="M111.979 27.4574C111.047 27.4346 110.132 27.7063 109.364 28.2336C108.596 28.7609 108.014 29.5172 107.701 30.3946C107.107 31.8803 106.828 33.4729 106.879 35.0721C106.809 36.8202 107.155 38.5599 107.889 40.1479C108.252 40.9375 108.841 41.6019 109.581 42.0574C110.321 42.5129 111.179 42.7391 112.048 42.7074C112.993 42.7403 113.924 42.4745 114.709 41.9477C115.494 41.4208 116.092 40.6598 116.42 39.773C117.015 38.2786 117.295 36.677 117.241 35.0692C117.314 33.3279 116.967 31.5946 116.23 30.0155C115.879 29.1969 115.28 28.5093 114.517 28.05C113.754 27.5907 112.866 27.383 111.979 27.4561M112.213 22.1685C116.396 22.1685 119.553 23.3906 121.682 25.8347C123.805 28.4313 124.893 31.7207 124.737 35.0707C124.841 36.8721 124.574 38.6757 123.951 40.3693C123.329 42.0629 122.364 43.6105 121.118 44.9154C119.019 46.9666 115.995 47.9937 112.048 47.9964C107.787 47.9964 104.583 46.7743 102.436 44.3302C100.306 41.7283 99.2178 38.4289 99.3809 35.0707C99.2765 33.2689 99.5439 31.465 100.166 29.7709C100.789 28.0768 101.753 26.5288 102.999 25.2232C105.098 23.1858 108.168 22.1675 112.21 22.1685" fill="black"/>
<path d="M54.0034 32.7231C53.9857 31.6285 53.7208 30.5521 53.2286 29.5743C52.8365 28.8255 52.2335 28.2081 51.494 27.7987C50.7546 27.3893 49.9113 27.2057 49.0686 27.2708C48.2184 27.2194 47.3707 27.4051 46.6198 27.8071C45.869 28.2092 45.2444 28.8119 44.8159 29.548C44.2604 30.5171 43.9459 31.6056 43.8987 32.7217L54.0034 32.7231ZM43.9221 37.4919C44.2034 41.0317 46.3496 42.8021 50.3607 42.803C53.1374 42.7461 55.8417 41.9074 58.1634 40.3833L60.6537 45.5284C57.4324 47.1989 53.8481 48.0473 50.2197 47.9979C45.4725 47.9979 41.9165 46.8223 39.5517 44.4713C37.3732 42.3261 36.2845 39.24 36.2854 35.2132C36.1359 31.7864 37.2857 28.4296 39.5048 25.814C41.6823 23.3874 44.8467 22.1727 48.998 22.1699C52.2399 21.9524 55.4376 23.016 57.9034 25.1319C59.9009 27.2206 61.0558 29.974 61.1462 32.8627C61.2555 33.9446 61.3108 35.4914 61.3108 37.4919H43.9221Z" fill="black"/>
<path d="M128.659 42.0255V28.4412L125.901 28.3029V23.0872L135.244 22.8548V26.4933C135.992 25.6527 136.832 24.899 137.748 24.2466C139.509 23.0686 141.589 22.4611 143.707 22.5063C147.092 22.5063 149.426 23.7513 150.709 26.2415C151.483 28.1847 151.814 30.2762 151.677 32.3634V42.0282L154.437 42.1929V47.4086H141.755V42.1929L144.514 42.0282V32.3634C144.599 31.2376 144.359 30.1108 143.822 29.1177C143.532 28.6908 143.136 28.3467 142.672 28.119C142.209 27.8912 141.695 27.7877 141.18 27.8187C139.278 27.8187 137.492 29.0934 135.823 31.6426V42.0282L138.583 42.1929V47.4086H125.901V42.1929L128.659 42.0255Z" fill="black"/>
<path d="M87.677 12.2006C87.1865 12.7034 86.8275 13.3194 86.6318 13.994C86.4361 14.6686 86.4096 15.3811 86.5548 16.0683C86.7 16.7556 87.0125 17.3964 87.4644 17.9341C87.9163 18.4719 88.4936 18.89 89.1456 19.1514C89.7976 19.4128 90.504 19.5095 91.2022 19.4329C91.9004 19.3563 92.569 19.1087 93.1487 18.7121C93.7285 18.3156 94.2016 17.7822 94.5261 17.1593C94.8506 16.5363 95.0166 15.8429 95.0093 15.1405C95.0422 14.053 94.6445 12.9965 93.9026 12.2006C93.5141 11.7811 93.0407 11.4491 92.5141 11.2265C91.9874 11.004 91.4195 10.896 90.8479 10.9099C90.2582 10.8909 89.6711 10.9961 89.1247 11.2184C88.5782 11.4408 88.0846 11.7753 87.6757 12.2006" fill="#FD66E2"/>
<path d="M0 0.00557303L2.32142 7.0889H6.28368L6.23251 40.8122L1.59237 41.1082V47.4044H20.4268V41.1082L14.933 40.8122L14.9413 0L0 0.00557303Z" fill="black"/>
<path d="M39.1644 15.6194C39.1869 13.4754 38.8083 11.3461 38.0479 9.3413C37.316 7.44299 36.1338 5.75079 34.6031 4.41052C32.8792 2.93515 30.8669 1.83504 28.6944 1.18019C25.9474 0.353752 23.0889 -0.0420333 20.2207 0.00698321H14.7699V7.08895H20.222C21.6947 7.06029 23.1631 7.25806 24.5757 7.67547C25.7119 8.01147 26.7609 8.59244 27.6485 9.37727C28.46 10.1214 29.0851 11.0459 29.4732 12.0763C29.8913 13.211 30.0971 14.4129 30.0805 15.6221C30.0981 16.8932 29.8926 18.1575 29.4732 19.3576C29.0936 20.4319 28.4689 21.4028 27.6485 22.1936C26.7685 23.0044 25.7187 23.609 24.5757 23.9631C23.0442 24.3421 21.4922 24.6331 19.9273 24.8347L22.1879 31.8903C24.3246 31.5358 26.4411 31.0685 28.5284 30.4903C30.7048 29.812 32.7168 28.6893 34.4371 27.1934C35.9972 25.8 37.2108 24.0621 37.9816 22.1176C38.7894 20.0461 39.1914 17.8385 39.1658 15.6152" fill="black"/>
</svg>
