<svg width="32" height="32" viewBox="0 0 32 32" fill="none" xmlns="http://www.w3.org/2000/svg">
<rect width="32" height="32" rx="16" fill="#002149"/>
<path d="M22.8615 12.9741C22.8615 13.1272 22.8615 13.2804 22.8615 13.4116C22.8615 17.9397 19.4052 23.1679 13.1052 23.1679C11.1584 23.1679 9.36462 22.5991 7.83337 21.6366C8.09587 21.6585 8.38025 21.6804 8.64275 21.6804C10.2396 21.6804 11.7271 21.1335 12.9084 20.2147C11.399 20.1929 10.1302 19.1866 9.71462 17.8304C9.93337 17.8741 10.1302 17.896 10.3709 17.896C10.6771 17.896 10.9834 17.8522 11.2677 17.7647C9.69275 17.4585 8.5115 16.0804 8.5115 14.4179C8.5115 14.396 8.5115 14.396 8.5115 14.3741C8.97087 14.6366 9.49587 14.7897 10.0646 14.8116C9.14587 14.1991 8.53337 13.1491 8.53337 11.946C8.53337 11.3116 8.70837 10.721 8.99275 10.2179C10.6771 12.296 13.2146 13.6522 16.0584 13.8054C15.9927 13.5647 15.9709 13.2804 15.9709 13.0179C15.9709 11.1147 17.5021 9.5835 19.4052 9.5835C20.3896 9.5835 21.2865 9.99912 21.899 10.6554C22.6865 10.5022 23.4084 10.2179 24.0865 9.82412C23.824 10.6335 23.2771 11.2897 22.5771 11.7272C23.2771 11.6397 23.9334 11.4647 24.5459 11.1804C24.1084 11.8804 23.5396 12.4929 22.8615 12.9741Z" fill="white"/>
</svg>
