<svg width="32" height="32" viewBox="0 0 32 32" fill="none" xmlns="http://www.w3.org/2000/svg">
<rect width="32" height="32" rx="16" fill="#002149"/>
<path d="M16.081 17.2811C15.301 18.8921 14.232 21.0731 13.702 22.0571C13.189 22.9531 12.762 22.8331 12.424 22.0811C11.252 19.3111 8.844 14.4561 7.712 11.7341C7.503 11.2321 7.345 10.9111 7.196 10.7841C7.045 10.6591 6.734 10.5841 6.26 10.5571C6.086 10.5381 6 10.4961 6 10.4261V10.0471L6.043 10.0091C6.814 10.0051 10.546 10.0091 10.546 10.0091L10.588 10.0471V10.4091C10.588 10.5091 10.525 10.5561 10.4 10.5561L9.93 10.5801C9.527 10.6061 9.325 10.7171 9.325 10.9451C9.325 11.0571 9.369 11.2201 9.464 11.4461C10.366 13.6521 13.481 20.2181 13.481 20.2181L13.595 20.2571L15.605 16.2451L15.203 15.3551L13.82 12.6341C13.82 12.6341 13.555 12.0891 13.463 11.9071C12.856 10.7041 12.87 10.6421 12.257 10.5601C12.084 10.5401 11.996 10.5181 11.996 10.4351V10.0451L12.046 10.0081H15.624L15.719 10.0381V10.4141C15.719 10.5021 15.656 10.5391 15.53 10.5391L15.273 10.5781C14.613 10.6291 14.722 10.8961 15.16 11.7641L16.479 14.4761L17.944 11.5541C18.188 11.0211 18.138 10.8861 18.037 10.7651C17.979 10.6951 17.782 10.5801 17.36 10.5651L17.192 10.5471C17.1479 10.5472 17.1052 10.532 17.071 10.5041C17.0534 10.4925 17.039 10.4765 17.0292 10.4578C17.0194 10.4391 17.0145 10.4182 17.015 10.3971V10.0401L17.066 10.0031C18.106 9.99611 20.437 10.0031 20.437 10.0031L20.487 10.0401V10.4041C20.487 10.5051 20.437 10.5521 20.326 10.5521C19.787 10.5761 19.674 10.6311 19.472 10.9181C19.372 11.0721 19.159 11.4081 18.934 11.7831L17.015 15.3461L16.961 15.4581L19.289 20.2211L19.431 20.2621L23.096 11.5581C23.225 11.2061 23.203 10.9561 23.043 10.8121C22.878 10.6681 22.754 10.5841 22.327 10.5661L21.977 10.5521C21.9318 10.5537 21.8873 10.5407 21.85 10.5151C21.8328 10.5044 21.8184 10.4897 21.8079 10.4723C21.7975 10.455 21.7914 10.4353 21.79 10.4151V10.0541L21.839 10.0161H25.976L26.01 10.0541V10.4181C26.01 10.5181 25.948 10.5681 25.836 10.5681C25.295 10.5921 24.896 10.7181 24.633 10.9191C24.37 11.1321 24.168 11.4331 24.019 11.8091C24.019 11.8091 20.648 19.5291 19.495 22.0981C19.057 22.9381 18.617 22.8631 18.242 22.0721C17.765 21.0951 16.764 18.9161 16.036 17.3111L16.081 17.2811Z" fill="white"/>
</svg>
